<svg xmlns="http://www.w3.org/2000/svg" width="470" height="191" fill="none" viewBox="0 0 470 191">
  <path fill="#1C223C" d="M0 6h375v146H0z"/>
  <path fill="#E87449" d="M31.4 26.224V47h-8.227V20.584h7.715l.512 5.64Zm-.976 6.665-1.929.048c0-2.018.244-3.816.732-5.395.489-1.595 1.18-2.946 2.076-4.053.895-1.107 1.961-1.945 3.198-2.514 1.253-.586 2.645-.88 4.175-.88 1.22 0 2.335.18 3.344.538a6.384 6.384 0 0 1 2.637 1.733c.749.798 1.319 1.856 1.71 3.174.406 1.302.61 2.913.61 4.834V47H38.7V30.35c0-1.058-.146-1.864-.44-2.417-.292-.57-.715-.96-1.269-1.172-.553-.212-1.229-.318-2.026-.318-.847 0-1.563.163-2.149.489a3.803 3.803 0 0 0-1.416 1.367c-.341.57-.594 1.245-.756 2.026a13.89 13.89 0 0 0-.22 2.564Zm29.81-12.305V47H51.98V20.584h8.252Zm-8.74-6.811c0-1.172.422-2.133 1.269-2.881.846-.75 1.945-1.123 3.296-1.123 1.35 0 2.45.374 3.296 1.123.846.748 1.269 1.709 1.269 2.88 0 1.172-.423 2.133-1.27 2.881-.846.749-1.944 1.123-3.295 1.123s-2.45-.374-3.296-1.123c-.847-.748-1.27-1.709-1.27-2.88ZM76.468 41.14c.765 0 1.416-.139 1.953-.415a2.91 2.91 0 0 0 1.245-1.221c.293-.537.431-1.18.415-1.929h7.74c.016 1.986-.473 3.727-1.466 5.225-.976 1.48-2.31 2.636-4.003 3.467-1.677.813-3.573 1.22-5.689 1.22-2.067 0-3.874-.333-5.42-1-1.546-.684-2.84-1.628-3.882-2.833-1.025-1.22-1.798-2.645-2.319-4.272-.505-1.628-.757-3.394-.757-5.298v-.562c0-1.904.252-3.67.757-5.297.52-1.644 1.294-3.068 2.32-4.273 1.041-1.22 2.327-2.165 3.857-2.832 1.546-.683 3.344-1.025 5.395-1.025 2.198 0 4.134.415 5.81 1.245 1.694.83 3.02 2.034 3.98 3.613.96 1.579 1.433 3.491 1.416 5.737h-7.739c.016-.797-.106-1.513-.366-2.148a3.292 3.292 0 0 0-1.22-1.514c-.538-.39-1.23-.586-2.076-.586-.846 0-1.53.188-2.05.562-.522.374-.92.895-1.197 1.562-.26.651-.44 1.4-.537 2.247-.082.846-.122 1.75-.122 2.71v.561c0 .977.04 1.896.122 2.759.097.846.285 1.595.561 2.246.277.635.676 1.14 1.197 1.513.52.359 1.212.538 2.075.538ZM99.394 9.5V47h-8.228V9.5h8.228Zm-.977 23.389-1.929.048c0-1.855.228-3.564.684-5.126.456-1.563 1.107-2.922 1.953-4.078.846-1.155 1.864-2.05 3.052-2.685 1.188-.635 2.506-.952 3.955-.952 1.302 0 2.49.187 3.564.561a6.848 6.848 0 0 1 2.808 1.807c.797.83 1.408 1.912 1.831 3.247.439 1.335.659 2.962.659 4.883V47h-8.276V30.545c0-1.074-.155-1.904-.464-2.49-.293-.602-.716-1.018-1.27-1.245-.553-.245-1.228-.367-2.026-.367-.96 0-1.742.163-2.344.489a3.413 3.413 0 0 0-1.391 1.367c-.31.57-.521 1.245-.635 2.026a17.812 17.812 0 0 0-.171 2.564Zm20.117 1.171v-.512c0-1.937.277-3.72.83-5.347.554-1.644 1.367-3.068 2.442-4.272 1.074-1.205 2.4-2.14 3.979-2.808 1.579-.683 3.402-1.025 5.469-1.025 2.083 0 3.914.341 5.493 1.025 1.595.667 2.93 1.603 4.004 2.808 1.074 1.204 1.888 2.628 2.441 4.272.554 1.628.83 3.41.83 5.347v.512c0 1.921-.276 3.703-.83 5.347-.553 1.628-1.367 3.052-2.441 4.273-1.074 1.204-2.401 2.14-3.98 2.807-1.578.668-3.401 1.001-5.468 1.001s-3.898-.333-5.493-1c-1.595-.668-2.93-1.604-4.004-2.808-1.075-1.221-1.888-2.645-2.442-4.273-.553-1.644-.83-3.426-.83-5.346Zm8.228-.512v.512c0 .993.073 1.921.219 2.784.147.862.391 1.62.733 2.27a3.846 3.846 0 0 0 1.391 1.49c.586.358 1.319.537 2.198.537.862 0 1.579-.18 2.148-.538a3.841 3.841 0 0 0 1.392-1.489c.342-.65.586-1.408.732-2.27.147-.863.22-1.79.22-2.784v-.512c0-.96-.073-1.864-.22-2.71-.146-.863-.39-1.62-.732-2.27-.342-.668-.806-1.189-1.392-1.563-.586-.374-1.318-.562-2.197-.562-.863 0-1.587.188-2.173.562-.57.374-1.025.895-1.367 1.562-.342.651-.586 1.408-.733 2.27-.146.847-.219 1.75-.219 2.71ZM156.376 9.5V47h-8.252V9.5h8.252Zm18.799 30.86V29.47c0-.748-.106-1.39-.318-1.928a2.537 2.537 0 0 0-1.001-1.245c-.455-.31-1.066-.464-1.831-.464-.618 0-1.147.106-1.587.317a2.179 2.179 0 0 0-1 .953c-.228.423-.342.96-.342 1.61h-8.228c0-1.22.269-2.351.806-3.393.553-1.058 1.334-1.977 2.344-2.759 1.025-.78 2.246-1.383 3.662-1.806 1.432-.44 3.027-.66 4.785-.66 2.099 0 3.971.35 5.615 1.05 1.66.7 2.97 1.75 3.931 3.15.96 1.383 1.44 3.125 1.44 5.224v10.816c0 1.725.098 3.035.293 3.93.195.88.472 1.653.83 2.32V47h-8.252c-.39-.814-.683-1.807-.879-2.978a24.555 24.555 0 0 1-.268-3.663Zm1.001-9.498.049 4.395h-3.638c-.765 0-1.416.106-1.953.317a3.291 3.291 0 0 0-1.27.88 3.47 3.47 0 0 0-.683 1.22 5.19 5.19 0 0 0-.196 1.44c0 .489.114.928.342 1.319.244.374.57.667.977.879.407.211.862.317 1.367.317.911 0 1.684-.171 2.319-.513.651-.358 1.148-.79 1.489-1.294.342-.504.513-.976.513-1.416l1.807 3.37c-.326.65-.7 1.31-1.123 1.977a8.654 8.654 0 0 1-1.538 1.855c-.603.554-1.343 1.01-2.222 1.368-.879.341-1.945.512-3.198.512-1.628 0-3.125-.333-4.492-1-1.351-.668-2.434-1.596-3.247-2.784-.814-1.204-1.221-2.588-1.221-4.15 0-1.367.244-2.588.732-3.662.505-1.075 1.262-1.986 2.271-2.735 1.009-.748 2.295-1.318 3.857-1.709 1.563-.39 3.402-.586 5.518-.586h3.54Zm20.532-10.278V47h-8.252V20.584h8.252Zm-8.74-6.811c0-1.172.423-2.133 1.269-2.881.847-.75 1.945-1.123 3.296-1.123 1.351 0 2.45.374 3.296 1.123.846.748 1.27 1.709 1.27 2.88 0 1.172-.424 2.133-1.27 2.881-.846.749-1.945 1.123-3.296 1.123-1.351 0-2.449-.374-3.296-1.123-.846-.748-1.269-1.709-1.269-2.88Z"/>
  <path fill="#E87449" d="M0 45h375v146H0z"/>
  <path fill="#1C223C" d="M28.426 56.19v-.508c0-1.917.274-3.681.822-5.293.548-1.627 1.353-3.037 2.417-4.23 1.063-1.192 2.368-2.118 3.915-2.78 1.547-.676 3.32-1.014 5.318-1.014 2.03 0 3.819.338 5.365 1.015 1.563.66 2.877 1.587 3.94 2.78 1.064 1.192 1.87 2.602 2.417 4.23.548 1.61.822 3.375.822 5.292v.508c0 1.901-.274 3.666-.822 5.293-.548 1.611-1.353 3.021-2.417 4.23-1.063 1.192-2.369 2.119-3.915 2.78-1.547.66-3.328.99-5.342.99-1.998 0-3.779-.33-5.341-.99-1.563-.661-2.877-1.588-3.94-2.78-1.064-1.209-1.87-2.618-2.417-4.23-.548-1.627-.822-3.392-.822-5.293Zm7.565-.508v.508c0 1.031.08 1.998.242 2.9.177.903.46 1.692.846 2.369a4.39 4.39 0 0 0 1.523 1.595c.644.37 1.426.556 2.344.556.919 0 1.692-.185 2.32-.556a4.392 4.392 0 0 0 1.523-1.595c.387-.677.66-1.466.822-2.369.177-.902.266-1.869.266-2.9v-.508a14.56 14.56 0 0 0-.266-2.852c-.161-.902-.435-1.7-.822-2.392a4.276 4.276 0 0 0-1.547-1.62c-.628-.387-1.41-.58-2.344-.58-.903 0-1.668.193-2.296.58-.629.387-1.136.927-1.523 1.62-.387.692-.669 1.49-.846 2.392a15.95 15.95 0 0 0-.242 2.852Zm28.98-7.806v31.179H57.43V42.848h7.033l.508 5.028Zm16.315 7.758v.508c0 1.901-.218 3.665-.653 5.293-.435 1.611-1.088 3.021-1.958 4.23a9.158 9.158 0 0 1-3.166 2.827c-1.257.661-2.715.991-4.375.991-1.579 0-2.948-.33-4.109-.99-1.144-.677-2.11-1.612-2.9-2.804-.773-1.209-1.402-2.586-1.885-4.133a35.104 35.104 0 0 1-1.088-5.003v-.991a34.547 34.547 0 0 1 1.112-5.245c.483-1.612 1.112-3.005 1.885-4.182.774-1.192 1.732-2.119 2.876-2.78 1.144-.66 2.506-.99 4.085-.99 1.644 0 3.102.314 4.375.942a8.6 8.6 0 0 1 3.19 2.707c.87 1.16 1.523 2.554 1.958 4.182.435 1.627.653 3.44.653 5.438Zm-7.566.508v-.508c0-1.063-.08-2.038-.241-2.925-.161-.902-.42-1.683-.774-2.344-.354-.677-.822-1.2-1.401-1.571-.58-.37-1.29-.556-2.127-.556-.903 0-1.668.145-2.297.435a3.682 3.682 0 0 0-1.522 1.281c-.387.548-.669 1.225-.846 2.03-.161.806-.25 1.724-.266 2.756v2.658c.016 1.209.185 2.288.507 3.24.339.934.862 1.667 1.572 2.199.725.515 1.691.773 2.9.773.854 0 1.563-.185 2.127-.556.58-.387 1.04-.926 1.377-1.62.355-.692.605-1.49.75-2.392.16-.902.242-1.87.242-2.9Zm19.143-8.267v31.18h-7.541V42.848h7.034l.507 5.028Zm16.315 7.759v.508c0 1.901-.218 3.665-.653 5.293-.435 1.611-1.087 3.021-1.958 4.23a9.156 9.156 0 0 1-3.166 2.827c-1.257.661-2.715.991-4.375.991-1.579 0-2.948-.33-4.108-.99-1.145-.677-2.111-1.612-2.9-2.804-.774-1.209-1.403-2.586-1.886-4.133a35.104 35.104 0 0 1-1.088-5.003v-.991a34.547 34.547 0 0 1 1.112-5.245c.483-1.612 1.112-3.005 1.885-4.182.774-1.192 1.732-2.119 2.877-2.78 1.143-.66 2.505-.99 4.084-.99 1.644 0 3.102.314 4.375.942a8.599 8.599 0 0 1 3.19 2.707c.871 1.16 1.523 2.554 1.958 4.182.435 1.627.653 3.44.653 5.438Zm-7.565.508v-.508a16.4 16.4 0 0 0-.242-2.925c-.161-.902-.419-1.683-.774-2.344-.354-.677-.821-1.2-1.401-1.571-.58-.37-1.29-.556-2.127-.556-.903 0-1.668.145-2.297.435a3.681 3.681 0 0 0-1.522 1.281c-.387.548-.669 1.225-.846 2.03-.161.806-.25 1.724-.266 2.756v2.658c.016 1.209.185 2.288.507 3.24.339.934.863 1.667 1.572 2.199.725.515 1.691.773 2.9.773.854 0 1.563-.185 2.127-.556.58-.387 1.039-.926 1.378-1.62.354-.692.604-1.49.749-2.392.161-.902.242-1.87.242-2.9Zm23.904 13.341c-2.079 0-3.94-.33-5.584-.99-1.643-.661-3.037-1.572-4.181-2.732a12.206 12.206 0 0 1-2.586-4.06c-.596-1.531-.895-3.167-.895-4.907v-.918c0-1.95.274-3.747.822-5.39.548-1.644 1.346-3.07 2.393-4.278 1.064-1.225 2.369-2.167 3.916-2.828 1.546-.677 3.311-1.015 5.293-1.015 1.853 0 3.504.306 4.955.918 1.45.596 2.674 1.459 3.673 2.586 1 1.112 1.757 2.458 2.272 4.037.532 1.563.798 3.32.798 5.269v3.094h-21.076V53.41h13.68v-.58c0-.918-.169-1.724-.507-2.417a3.492 3.492 0 0 0-1.451-1.595c-.628-.387-1.426-.58-2.393-.58-.918 0-1.683.193-2.296.58-.612.387-1.103.935-1.474 1.644-.355.692-.612 1.506-.773 2.44-.162.92-.242 1.91-.242 2.974v.918c0 1.015.137 1.942.411 2.78.274.838.676 1.555 1.208 2.15a5.636 5.636 0 0 0 1.934 1.403c.757.338 1.619.507 2.586.507a8.753 8.753 0 0 0 3.408-.676c1.08-.468 2.014-1.193 2.804-2.176l3.528 4.037c-.531.773-1.281 1.522-2.247 2.247-.951.71-2.095 1.29-3.432 1.74-1.338.452-2.853.677-4.544.677Zm29.777-6.332V31.875h7.589V69h-6.816l-.773-5.85Zm-16.291-6.913v-.507c0-1.982.218-3.787.653-5.414.451-1.644 1.104-3.054 1.958-4.23a8.935 8.935 0 0 1 3.214-2.756c1.273-.644 2.732-.966 4.375-.966 1.515 0 2.836.338 3.964 1.015 1.128.66 2.087 1.595 2.876 2.804.806 1.192 1.458 2.602 1.958 4.23.499 1.61.878 3.359 1.136 5.244v.87a27.936 27.936 0 0 1-1.136 5.052c-.5 1.563-1.152 2.94-1.958 4.133-.789 1.176-1.756 2.103-2.9 2.78-1.128.66-2.457.99-3.988.99-1.644 0-3.102-.33-4.375-.99a9.014 9.014 0 0 1-3.166-2.78c-.854-1.192-1.507-2.594-1.958-4.206-.435-1.611-.653-3.367-.653-5.269Zm7.541-.507v.507c0 1.032.073 1.99.218 2.877.161.886.419 1.667.773 2.344.355.677.822 1.208 1.402 1.595.58.37 1.289.556 2.127.556 1.128 0 2.055-.258 2.78-.773.725-.532 1.273-1.265 1.643-2.2.371-.934.564-2.022.58-3.263v-2.538c0-1.03-.104-1.957-.314-2.78-.209-.82-.524-1.514-.942-2.078a3.9 3.9 0 0 0-1.523-1.28c-.612-.307-1.338-.46-2.175-.46-.822 0-1.523.193-2.103.58-.58.37-1.056.894-1.426 1.571-.355.677-.621 1.474-.798 2.393a16.812 16.812 0 0 0-.242 2.949Zm35.216 7.033V51.55c0-.79-.121-1.466-.363-2.03a2.853 2.853 0 0 0-1.136-1.33c-.515-.322-1.184-.483-2.006-.483-.693 0-1.297.121-1.812.363-.5.241-.887.588-1.161 1.04-.257.45-.386 1.006-.386 1.667h-7.541c0-1.176.266-2.272.797-3.287.532-1.015 1.289-1.91 2.272-2.683.999-.773 2.192-1.37 3.577-1.789 1.386-.435 2.941-.652 4.665-.652 2.047 0 3.867.346 5.463 1.04 1.611.676 2.884 1.699 3.819 3.069.934 1.353 1.401 3.061 1.401 5.124v10.949c0 1.579.089 2.82.266 3.722.194.886.468 1.66.822 2.32V69h-7.614c-.354-.757-.62-1.692-.797-2.804a22.105 22.105 0 0 1-.266-3.432Zm.943-9.716.048 4.157h-3.746c-.838 0-1.563.105-2.176.314-.596.21-1.079.5-1.45.87-.37.355-.644.774-.822 1.257a4.724 4.724 0 0 0-.241 1.547c0 .532.129 1.015.386 1.45.258.42.613.75 1.064.991.451.242.975.363 1.571.363.983 0 1.821-.194 2.514-.58.709-.387 1.256-.854 1.643-1.402.387-.564.58-1.088.58-1.571l1.813 3.142c-.29.645-.645 1.313-1.064 2.006a9.171 9.171 0 0 1-1.595 1.91c-.644.58-1.426 1.055-2.344 1.425-.903.371-1.99.556-3.263.556-1.644 0-3.134-.33-4.472-.99-1.337-.677-2.409-1.604-3.214-2.78-.79-1.176-1.185-2.53-1.185-4.06 0-1.37.25-2.587.75-3.65.499-1.064 1.249-1.966 2.248-2.707 1.015-.742 2.288-1.297 3.818-1.668 1.531-.387 3.32-.58 5.366-.58h3.771Zm19.553-21.173V69h-7.565V31.875h7.565Zm19.56 65.425a3.56 3.56 0 0 1-.937-1.073 7.102 7.102 0 0 1-.567-1.368 9.341 9.341 0 0 1-.273-1.484c-.039-.52-.052-1.016-.039-1.484.117-.352.26-.67.43-.957.169-.3.358-.58.566-.84a9.1 9.1 0 0 1 .645-.762c.234-.247.462-.495.683-.742.078 0 .15.02.215.058a1 1 0 0 1 .234-.37c.105-.105.215-.196.332-.274.118-.091.235-.176.352-.254a1.33 1.33 0 0 0 .293-.313 3.18 3.18 0 0 0 .859-.331c.261-.144.508-.3.743-.47.234-.168.475-.325.722-.468a3.2 3.2 0 0 1 .86-.332c.117-.13.26-.24.429-.332.183-.091.358-.176.528-.254a4.59 4.59 0 0 0 .507-.254 1.13 1.13 0 0 0 .411-.371c.078.104.188.143.332.117a7.28 7.28 0 0 0 .39-.117.248.248 0 0 1 .196.04.65.65 0 0 1 .136.136.882.882 0 0 0 .117.078c.04.013.079-.026.118-.117.104.013.13.058.078.136l-.078.157c.13-.026.234 0 .312.078.091.065.228.11.41.137.065.065.085.117.059.156a.496.496 0 0 0-.059.195c.469.143.769.371.899.684.13.3.143.618.039.957-.104.325-.3.631-.586.918-.274.273-.58.455-.918.547-.404.104-.781.208-1.133.312-.338.104-.67.221-.996.352a5.84 5.84 0 0 0-.898.468 3.23 3.23 0 0 0-.723.606 4.021 4.021 0 0 0-.996.43 7.31 7.31 0 0 0-.82.605 11.94 11.94 0 0 0-.723.703l-.703.703c0 .222-.039.39-.117.508a6.448 6.448 0 0 1-.254.352c.026.247.078.462.156.644.091.17.182.345.273.528 1.042.312 2.142.507 3.301.585 1.172.066 2.331.105 3.477.118.117.156.247.306.39.449.157.13.293.267.41.41.131.143.228.313.293.508.079.182.098.404.059.664a8.596 8.596 0 0 1-.723.644l-.781.586c-.117.013-.26.013-.43 0a6.126 6.126 0 0 0-.507-.02c-.17 0-.345.014-.528.04a1.574 1.574 0 0 0-.488.117 15.6 15.6 0 0 1-2.52-.293 20.965 20.965 0 0 1-2.382-.644 5.145 5.145 0 0 0-.45-.47 1.308 1.308 0 0 0-.625-.331Zm21.797-4.16c-.013.157 0 .307.039.45.039.143.085.286.137.43.065.13.124.267.176.41.052.143.091.286.117.43a2.35 2.35 0 0 1 0 .605 3.591 3.591 0 0 1-.137.625 2.572 2.572 0 0 1-.254.547 1.048 1.048 0 0 1-.371.351 1.912 1.912 0 0 1-.664.547c-.26.13-.501.287-.722.469a1.48 1.48 0 0 1-.489.195c-.169.04-.345.078-.527.117a9.14 9.14 0 0 1-.508.254c-.195.079-.397.157-.605.235a5.543 5.543 0 0 1-.625.156 2.685 2.685 0 0 1-.547.02 4.773 4.773 0 0 1-1.153.273c-.364.052-.794.026-1.289-.078a3.35 3.35 0 0 1-1.308-.059 3.261 3.261 0 0 1-1.055-.488 4.382 4.382 0 0 1-.801-.82 5.547 5.547 0 0 1-.547-1.016c-.104-.742-.078-1.413.079-2.012a6.818 6.818 0 0 1 .664-1.68c.299-.52.638-.995 1.015-1.425.378-.443.742-.873 1.094-1.29.078.027.137.027.176 0a.707.707 0 0 0 .137-.136c.039-.065.078-.124.117-.176a.338.338 0 0 1 .176-.097.902.902 0 0 1 .39-.43c.182-.104.326-.248.43-.43a.861.861 0 0 0 .293-.117c.078-.052.15-.11.215-.176.078-.065.156-.123.234-.175a.677.677 0 0 1 .273-.137v-.215c.235-.104.404-.221.508-.352.117-.143.254-.312.41-.507.118-.014.209-.02.274-.02.078 0 .189-.013.332-.04.104-.181.195-.318.273-.41a2.17 2.17 0 0 1 .391-.292c.156.078.325.13.508.156.195.026.364.11.508.254a.57.57 0 0 0 .117.313c.065.065.136.13.215.195a1.4 1.4 0 0 1 .214.176.473.473 0 0 1 .157.273c.052.013.084.006.097-.02.026-.026.065-.032.118-.02.039.183.084.307.136.372.052.052.104.163.157.332-.066.13-.118.267-.157.41a.407.407 0 0 1-.234.293c-.013.091.013.143.078.156.065 0 .104.033.117.098.013.117-.006.202-.058.254.312.508.592 1.048.839 1.621.248.56.528 1.094.84 1.602Zm-2.441 1.856c.052-.143.117-.26.195-.351.091-.092.143-.228.156-.41a.949.949 0 0 1-.117-.235 1.63 1.63 0 0 1-.019-.293 7.829 7.829 0 0 1-.742-1.289 9.616 9.616 0 0 0-.704-1.309.488.488 0 0 1-.136.157c-.065.052-.137.039-.215-.04a.42.42 0 0 1-.137.235.411.411 0 0 1-.215.059 2.4 2.4 0 0 1-.254-.059 1.2 1.2 0 0 1-.214-.137c-.378.3-.756.593-1.133.88a5.658 5.658 0 0 0-1.016.995.341.341 0 0 1-.098.04c-.013-.014-.052-.007-.117.019a3.21 3.21 0 0 1-.39.683c-.144.196-.287.398-.43.606-.143.208-.267.43-.371.664a2.24 2.24 0 0 0-.176.82c.221.183.482.293.781.332.3.04.606.046.918.02.326-.026.638-.065.938-.117.312-.065.599-.098.859-.098.547-.13 1.016-.3 1.406-.508a35.21 35.21 0 0 1 1.231-.664Zm7.637.45a.35.35 0 0 0-.254.214 9.656 9.656 0 0 0-.157.332 2.527 2.527 0 0 1-.136.332c-.039.091-.104.137-.196.137a.519.519 0 0 1-.117.273 4.347 4.347 0 0 0-.156.254.869.869 0 0 0-.117.274.52.52 0 0 0 .039.332.511.511 0 0 0-.195.332c-.027.143-.059.28-.098.41a.716.716 0 0 1-.156.332c-.078.091-.222.13-.43.117-.039.052-.046.085-.02.098.026.013.046.058.059.137-.143-.026-.254-.02-.332.02a.497.497 0 0 1-.254.097 1.35 1.35 0 0 1-.625-.41 4.721 4.721 0 0 1-.43-.645 20.119 20.119 0 0 1-.332-.742 6.412 6.412 0 0 0-.273-.645.885.885 0 0 0 .019-.41.866.866 0 0 0-.136-.351c.638-1.355 1.334-2.8 2.09-4.336a156.755 156.755 0 0 0 2.148-4.551c.299.117.592.254.879.41.299.143.566.313.801.508.247.195.455.423.625.683.169.248.28.528.332.84-.026.078-.059.111-.098.098-.026-.026-.052-.02-.078.02.052.065.078.11.078.136a.083.083 0 0 1 0 .078v.118c0 .039.02.097.059.175-.052-.013-.091-.006-.118.02-.013.026-.052.026-.117 0 .052.143.065.26.039.351a.825.825 0 0 1-.078.254.976.976 0 0 0-.097.235.532.532 0 0 0 .019.312.133.133 0 0 0-.098.04.23.23 0 0 0-.039.058l-.058.058c-.013.013-.039.013-.078 0 .039.287.052.573.039.86l-.039.879c0 .286.006.592.019.918.013.312.059.638.137.976.469-.273.84-.625 1.113-1.054a5.67 5.67 0 0 0 .684-1.446 9.771 9.771 0 0 0 .41-1.718c.091-.612.189-1.237.293-1.875.117-.118.208-.26.273-.43.065-.17.124-.345.176-.528.052-.195.104-.384.156-.566a2.78 2.78 0 0 1 .196-.527.97.97 0 0 1 .488.195c.143.091.273.195.391.313.117.104.24.208.371.312.13.091.293.15.488.176.156.221.299.436.43.644.13.209.214.43.254.664a1.408 1.408 0 0 0-.157.352c-.026.13-.058.26-.097.39s-.091.255-.157.372a.91.91 0 0 1-.273.273 8.794 8.794 0 0 1-.156.938 18.43 18.43 0 0 1-.176.82c-.052.273-.098.56-.137.86a5.597 5.597 0 0 0-.039.956l-.332.957a9.742 9.742 0 0 0-.273.918c-.209.17-.371.371-.489.606-.117.234-.24.469-.371.703-.052.052-.084.065-.097.039-.013-.026-.059-.046-.137-.059.013.053.013.092 0 .118a.309.309 0 0 1-.059.078.212.212 0 0 0-.039.078.45.45 0 0 0 .039.156 1.547 1.547 0 0 0-.488.332 3.326 3.326 0 0 1-.469.39 1.318 1.318 0 0 1-.586.235c-.221.04-.514-.006-.879-.137a7.774 7.774 0 0 1-1.425-1.347 6.528 6.528 0 0 1-.996-1.817Zm18.398-5.84a7.76 7.76 0 0 0-1.055.078c-.377.039-.748.084-1.113.136-.26.04-.514.072-.762.098a14.78 14.78 0 0 1-.644.059 9.466 9.466 0 0 1-.567 1.406c-.104.221-.201.45-.293.683-.078.222-.156.463-.234.723a7.15 7.15 0 0 0-.332.586c-.078.17-.143.365-.195.586a2.115 2.115 0 0 0-.352.625 5.09 5.09 0 0 0-.176.547l-.078.234a.482.482 0 0 0-.136.195.261.261 0 0 1-.098.118 1.105 1.105 0 0 1-.137.43c-.026.064-.045.13-.058.195a.544.544 0 0 0-.02.117c0 .13-.033.215-.098.254a.596.596 0 0 1 0 .215l-.039.195a1.02 1.02 0 0 0-.039.371c.039.052.072.098.098.137a.297.297 0 0 1 .078.156.854.854 0 0 0 .176.098c.052.039.13.084.234.136l.176.196c.065.377.006.677-.176.898-.195.248-.527.371-.996.371h-.234a.474.474 0 0 1-.117-.156l-.254-.098a.394.394 0 0 1-.176-.156 15.142 15.142 0 0 1-.41-.195l-.176-.098v-.234a1.425 1.425 0 0 1-.215-.39 5.102 5.102 0 0 1-.098-.43 2.475 2.475 0 0 0-.097-.333.868.868 0 0 0-.117-.273c-.026-.755.045-1.393.214-1.914.17-.52.345-1.022.528-1.504l.312-.781c.104-.274.196-.554.274-.84l.175-.195c.092-.209.163-.378.215-.508l.196-.43c.039-.091.071-.176.097-.254l.098-.234a1.1 1.1 0 0 0-.215.02.992.992 0 0 0-.195.019c-.078.013-.15.026-.215.039h-.195a.688.688 0 0 1-.196-.02 1.116 1.116 0 0 1-.468.098h-.313a.172.172 0 0 0-.078-.02.71.71 0 0 0-.313.06h-.644a.321.321 0 0 0-.098.019h-.097c-.092 0-.189-.007-.293-.02a1.362 1.362 0 0 1-.332-.137c-.157-.208-.261-.319-.313-.332l-.176-.234a1.037 1.037 0 0 0-.058-.215 6.16 6.16 0 0 1-.078-.254c-.052-.13-.105-.267-.157-.41a2.276 2.276 0 0 1-.058-.547.495.495 0 0 1 .078-.234 4.28 4.28 0 0 0 .098-.137l.058-.293.254.02h.547c.417 0 .84-.013 1.269-.04.43-.038.873-.078 1.329-.117l.781-.078.84-.078a8.11 8.11 0 0 1 .156-.332l.195-.097c.235-.013.397.019.489.097.104.065.188.13.253.195l.86-.078c.299-.039.599-.084.898-.136.443-.066.886-.124 1.328-.176.456-.052.892-.078 1.309-.078.182 0 .358.006.527.02.17.012.326.032.469.058l.195.137c.039.078.091.15.157.214l.234.196a4.6 4.6 0 0 1 .469.507c.156.196.215.482.175.86-.104.156-.182.247-.234.273l-.176.235-.195-.02a.575.575 0 0 0-.215.04 1.12 1.12 0 0 0-.195.058l-.156.078a3.841 3.841 0 0 1-.176.039h-.293a1.1 1.1 0 0 0-.215-.02Zm7.813 7.753c-.079.222-.196.45-.352.684a2.889 2.889 0 0 1-.527.605c-.196.17-.417.313-.664.43a2.04 2.04 0 0 1-.782.195c-.169-.039-.286-.084-.351-.136a2.067 2.067 0 0 0-.176-.117.489.489 0 0 0-.117-.059.304.304 0 0 0-.078-.059l-.235-.097.078-.254c.026-.104.02-.183-.019-.235a1.236 1.236 0 0 0-.235-.254l-.117-.117a.77.77 0 0 1-.097-.117l-.332-.37.527-.138c.325-.09.54-.208.645-.351.117-.143.162-.384.136-.723a1.658 1.658 0 0 0-.664-.02c-.169.04-.345.085-.527.137-.235.065-.475.124-.723.176-.234.04-.495.059-.781.059h-.293a16.92 16.92 0 0 0-.293-.04l-.195-.038c-.026-.144-.052-.222-.078-.235l-.079-.078a2.404 2.404 0 0 1-.214-.254c-.066-.117-.079-.26-.039-.43a.92.92 0 0 1-.118-.351 2.19 2.19 0 0 0-.175.488l-.079.196-.195.039c-.026.013-.045.045-.059.097a.319.319 0 0 0-.019.098l-.098.332-.078.078a.308.308 0 0 0-.078.059 3.548 3.548 0 0 1-.098.351 9.48 9.48 0 0 1-.117.332c-.065.17-.123.339-.176.508a1.433 1.433 0 0 0-.039.469l-.078.215a.984.984 0 0 1-.215.195l-.234.117a.451.451 0 0 1-.117.078.78.78 0 0 0-.098.04l-.058.214-.235.04c-.143.025-.247.045-.312.058a.824.824 0 0 1-.196.02l-.195-.02a54.788 54.788 0 0 1-.332-.274 1.53 1.53 0 0 0-.273-.215c-.118-.156-.183-.273-.196-.351a6.785 6.785 0 0 0-.039-.215.643.643 0 0 1-.039-.195.248.248 0 0 0-.058-.117l-.254-.235.215-.175.019-.333c.26-.664.534-1.302.82-1.914l.918-1.875c.105-.208.202-.416.293-.625l.313-.625a.433.433 0 0 1 .019-.312c.144-.222.261-.417.352-.586l.273-.547c.105-.221.209-.436.313-.644a5.35 5.35 0 0 1 .43-.645l.312-.137c.039-.013.085-.026.137-.039a.386.386 0 0 1 .176-.039l.292.04a3 3 0 0 0 .958-.704c.273-.312.553-.683.839-1.113l.196-.274.254.157c.065.039.156.078.273.117.117.026.241.058.371.097.235.053.456.111.664.176.209.065.378.163.508.293.078.209.124.365.137.469.013.104.032.208.058.313.039.22.072.442.098.663.039.222.065.47.078.743.065.221.117.442.156.664.052.208.098.423.137.644.065.313.13.619.195.918.065.287.15.56.254.82.104 0 .17.007.196.02a1.12 1.12 0 0 1 .195-.058c.078-.014.163-.026.254-.04l.215-.02.078.196c.013.065.078.13.195.196.169.013.293.052.371.117.078.052.15.11.215.175a.61.61 0 0 0 .156.118l.293.117-.156.293a2.68 2.68 0 0 1-.566.683 3.439 3.439 0 0 1-.801.528c.013.078.019.156.019.234.013.065.033.137.059.215.039.221.072.45.098.684a3.35 3.35 0 0 1 0 .722l-.039.078Zm-5.645-3.378c.391-.026.742-.053 1.055-.079.325-.039.683-.097 1.074-.175a76.569 76.569 0 0 0-.625-2.481l-.117.195a9.19 9.19 0 0 0-.762.918 12.53 12.53 0 0 0-.605.957l-.235.352c-.078.117-.15.234-.215.352.078-.013.15-.02.215-.02a1.1 1.1 0 0 0 .215-.02Zm15.059 5.058a5.554 5.554 0 0 1-.782-.02 1.664 1.664 0 0 0-.84.137c-.69-.026-1.393-.11-2.109-.254a14.931 14.931 0 0 1-1.973-.527 5.528 5.528 0 0 0-.39-.39 1.073 1.073 0 0 0-.528-.274 2.98 2.98 0 0 1-.761-.898 5.888 5.888 0 0 1-.469-1.153 6.63 6.63 0 0 1-.234-1.23c-.039-.43-.052-.84-.039-1.23a4.506 4.506 0 0 1 .82-1.505c.364-.43.736-.852 1.113-1.27.169-.077.293-.155.371-.234.091-.09.183-.169.274-.234.104-.078.202-.15.293-.215a1.36 1.36 0 0 0 .273-.273c.274-.065.508-.156.703-.274.209-.13.41-.26.606-.39.195-.144.397-.274.605-.39a2.72 2.72 0 0 1 .723-.274 1.1 1.1 0 0 1 .371-.274c.143-.078.286-.15.43-.215a6.43 6.43 0 0 0 .429-.234.848.848 0 0 0 .332-.313c.065.105.157.144.274.118.117-.04.228-.078.332-.117.065-.013.117 0 .156.039.052.039.098.078.137.117a.418.418 0 0 0 .097.078c.04 0 .072-.033.098-.098.065 0 .085.033.059.098-.026.065-.046.11-.059.137a.29.29 0 0 1 .254.078.754.754 0 0 0 .352.097c.052.066.065.118.039.157-.026.026-.039.078-.039.156.39.117.638.306.742.566.104.248.11.508.019.781a1.951 1.951 0 0 1-.488.762c-.234.235-.488.39-.762.469a20.73 20.73 0 0 0-1.777.566 3.244 3.244 0 0 0-1.348.88 3.308 3.308 0 0 0-.84.37 4.879 4.879 0 0 0-.683.508c-.208.182-.41.378-.606.586-.182.195-.377.39-.586.586.013.182-.019.326-.097.43-.065.09-.13.189-.196.293.027.195.072.37.137.527.065.143.137.287.215.43.859.26 1.771.423 2.734.488a55.11 55.11 0 0 0 2.93.117 2.7 2.7 0 0 0 .313.371c.13.105.247.222.351.352.104.117.189.254.254.41.065.143.078.326.039.547a4.887 4.887 0 0 1-.605.547c-.222.156-.443.319-.664.488Zm13.261-9.433a7.75 7.75 0 0 0-1.054.078c-.378.039-.749.084-1.114.136a17.305 17.305 0 0 1-1.406.157 9.9 9.9 0 0 1-.273.761 9.685 9.685 0 0 1-.293.645c-.104.221-.202.45-.293.683-.078.222-.157.463-.235.723a7.15 7.15 0 0 0-.332.586c-.078.17-.143.365-.195.586a2.161 2.161 0 0 0-.352.625c-.078.208-.136.39-.175.547l-.078.234a.476.476 0 0 0-.137.195.261.261 0 0 1-.098.118 1.089 1.089 0 0 1-.137.43c-.026.064-.045.13-.058.195a.544.544 0 0 0-.02.117c0 .13-.032.215-.097.254a.596.596 0 0 1 0 .215l-.039.195a1.02 1.02 0 0 0-.039.371c.039.052.071.098.097.137a.297.297 0 0 1 .078.156.854.854 0 0 0 .176.098c.052.039.13.084.234.136l.176.196c.065.377.007.677-.176.898-.195.248-.527.371-.996.371h-.234a.474.474 0 0 1-.117-.156l-.254-.098a.394.394 0 0 1-.176-.156 15.142 15.142 0 0 1-.41-.195l-.176-.098v-.234a1.425 1.425 0 0 1-.215-.39 5.094 5.094 0 0 1-.097-.43 2.476 2.476 0 0 0-.098-.333.868.868 0 0 0-.117-.273c-.026-.755.045-1.393.215-1.914.169-.52.345-1.022.527-1.504l.313-.781a9.15 9.15 0 0 0 .273-.84l.176-.195c.091-.209.163-.378.215-.508l.195-.43c.039-.091.072-.176.098-.254.039-.091.071-.17.097-.234a1.1 1.1 0 0 0-.215.02.992.992 0 0 0-.195.019c-.078.013-.15.026-.215.039h-.195a.684.684 0 0 1-.195-.02 1.11 1.11 0 0 1-.469.098h-.313a.172.172 0 0 0-.078-.02c-.13 0-.234.02-.312.06h-.645a.316.316 0 0 0-.097.019h-.098c-.091 0-.189-.007-.293-.02a1.379 1.379 0 0 1-.332-.137c-.156-.208-.261-.319-.313-.332l-.175-.234a1.037 1.037 0 0 0-.059-.215 6.16 6.16 0 0 1-.078-.254 13.87 13.87 0 0 1-.156-.41 2.272 2.272 0 0 1-.059-.547.495.495 0 0 1 .078-.234c.039-.052.072-.098.098-.137l.058-.293.254.02h.547c.417 0 .84-.013 1.27-.04.429-.038.872-.078 1.328-.117l.781-.078.84-.078a8.11 8.11 0 0 1 .156-.332l.196-.097c.234-.013.397.019.488.097.104.065.189.13.254.195l.859-.078c.3-.039.599-.084.899-.136a42.7 42.7 0 0 1 1.328-.176c.455-.052.892-.078 1.308-.078.183 0 .358.006.528.02.169.012.325.032.468.058l.196.137c.039.078.091.15.156.214l.234.196c.156.143.313.312.469.507.156.196.215.482.176.86-.104.156-.183.247-.235.273l-.175.235-.196-.02a.579.579 0 0 0-.215.04 1.12 1.12 0 0 0-.195.058l-.156.078a3.841 3.841 0 0 1-.176.039h-.293a1.1 1.1 0 0 0-.215-.02Zm19.395 9.043c-.13.065-.254.123-.371.175a.82.82 0 0 1-.371.078c-.508-.377-.775-1.035-.801-1.972-.013-.938.189-2.13.605-3.575.065-.039.098-.117.098-.234l-.176-.195a.641.641 0 0 0-.156.02c-.039.012-.072.058-.098.136a37 37 0 0 1-1.113.781c-.404.26-.827.508-1.269.743a8.5 8.5 0 0 1-1.329.546 4.232 4.232 0 0 1-1.308.215c-1.094 0-1.914-.553-2.461-1.66l-.156-.293-.157.254a2.201 2.201 0 0 0-.175.332 5.491 5.491 0 0 0-.235.547c-.078.208-.15.423-.215.644a1.708 1.708 0 0 0-.058.547 6.135 6.135 0 0 0-.371.41 1.596 1.596 0 0 0-.293.528.383.383 0 0 0 .039.293.44.44 0 0 1-.176.273c-.052.065-.111.13-.176.195a.952.952 0 0 0-.137.176c-.026.065-.045.13-.058.196 0 .065-.007.13-.02.195a.8.8 0 0 1-.039.254c-.221.456-.397.749-.527.879a.677.677 0 0 1-.527.215 3.49 3.49 0 0 1-.508-.059 2.806 2.806 0 0 1-.469-.742 6.392 6.392 0 0 1-.312-1.035 6.128 6.128 0 0 1-.098-1.094c.013-.378.078-.703.195-.977 0-.013.052-.143.156-.39.105-.248.235-.567.391-.957.169-.39.358-.82.566-1.29.209-.481.417-.943.625-1.386.209-.456.404-.873.586-1.25.196-.378.358-.664.489-.86.104-.156.195-.299.273-.43.091-.142.176-.28.254-.41a8.21 8.21 0 0 1 .664-.995c.221-.274.54-.489.957-.645.287.117.495.254.625.41l.039.215c.052.13.13.195.235.195.143.04.26.079.351.118.104.026.215.052.332.078.091.104.176.228.254.37.104.157.202.313.293.47.104.143.182.293.234.449.066.143.098.293.098.449a1.1 1.1 0 0 1-.078.488l.019.196c.066.117.079.28.04.488-.013.091-.02.189-.02.293 0 .091.013.195.039.312.234.183.443.274.625.274.208 0 .397-.046.566-.137a7.9 7.9 0 0 0 .508-.313 2.06 2.06 0 0 1 .313-.195.769.769 0 0 1 .312-.117c.235-.221.443-.417.625-.586.196-.17.397-.338.606-.508.39-.312.768-.65 1.133-1.015.364-.365.657-.82.878-1.368a.788.788 0 0 1 .411-.117c.143 0 .293.033.449.098.156.065.306.13.449.195a.938.938 0 0 0 .098.059.76.76 0 0 1 .097.039c0 .13.052.24.157.332.052.039.084.065.097.078a.23.23 0 0 0 .059.04c.195.103.319.207.371.312.091.3.254.527.488.683a.892.892 0 0 0 0 .371c.039.105.085.215.137.332l.039.118c.013.039.033.084.059.136l-.371-.039.058.371a1.43 1.43 0 0 1-.058.606 1.902 1.902 0 0 1-.196.527c.013.339.02.606.02.8.013.183.006.359-.02.528a2.529 2.529 0 0 1-.117.45 3.042 3.042 0 0 1-.176.468c.052.834-.045 1.595-.293 2.285a26.301 26.301 0 0 1-.742 1.914c-.026.066-.059.13-.098.196l-.078.195a1.74 1.74 0 0 0-.312.137 5.497 5.497 0 0 0-.293.136Zm13.672-10.645a.586.586 0 0 1 0 .215.37.37 0 0 1-.02.117v.137c0 .039.013.104.039.195-.273.443-.592.749-.957.918a5.16 5.16 0 0 1-1.152.352 66.42 66.42 0 0 0-1.289.214c-.43.079-.86.248-1.289.508a.587.587 0 0 0-.469 0c-.13.065-.326.085-.586.059a.737.737 0 0 1-.293.176 3.535 3.535 0 0 0-.351.097.722.722 0 0 1 .058.371c0 .118.02.215.059.293.455.04.957.033 1.504-.02a24.72 24.72 0 0 1 1.64-.097c.013.065.007.11-.019.137-.026.013-.033.045-.02.097.091.066.182.15.274.254l.273.274c.091.091.182.17.274.234a.629.629 0 0 0 .351.059c.052.104.085.221.098.351a.622.622 0 0 1-.039.371c-.209.144-.417.293-.625.45a5.64 5.64 0 0 1-.664.39 4.024 4.024 0 0 1-.723.293 2.833 2.833 0 0 1-.84.078h-.156c-.026 0-.065-.02-.117-.058-.105.065-.254.084-.45.058-.182-.026-.325-.006-.429.059a1.103 1.103 0 0 0-.528-.078 1.66 1.66 0 0 1-.527-.078 6.767 6.767 0 0 0-.566.879c-.17.312-.319.644-.45.996a5.94 5.94 0 0 0 1.094.078c.3-.013.58-.033.84-.059.26-.039.527-.071.801-.097.273-.04.618-.053 1.035-.04.26-.143.566-.234.918-.273.365-.052.697-.13.996-.234a.61.61 0 0 1 .273.215c.079.09.15.182.215.273.078.078.157.15.235.215a.373.373 0 0 0 .293.078.35.35 0 0 1 .097.195c.026.065.046.13.059.196a.661.661 0 0 0 .059.175c.039.04.097.052.175.04-.195.43-.423.761-.683.996-.248.22-.534.39-.86.507-.325.118-.69.209-1.093.274-.391.065-.827.143-1.309.234a.435.435 0 0 1-.293-.02.864.864 0 0 0-.273-.038c-.3.065-.658.123-1.075.175a8.19 8.19 0 0 1-1.269.059 5.403 5.403 0 0 1-1.231-.176 1.949 1.949 0 0 1-.957-.508.722.722 0 0 1-.215-.312c-.026-.13-.11-.228-.253-.293a5.341 5.341 0 0 0-.079-.567 61.61 61.61 0 0 1-.117-.644 14.368 14.368 0 0 1-.097-.684c-.013-.221 0-.423.039-.605a1.29 1.29 0 0 1 .234-.528.574.574 0 0 0 .137-.507c.065-.013.104-.046.117-.098.013-.065.065-.091.156-.078.078-.234.163-.456.254-.664.091-.209.182-.41.274-.606.104-.195.201-.39.292-.585a6.53 6.53 0 0 0 .293-.684 1.776 1.776 0 0 1-.41-.547 3.914 3.914 0 0 1-.175-.606 9.637 9.637 0 0 1-.098-.624 4.018 4.018 0 0 0-.137-.665 1.61 1.61 0 0 1 .469-.468c.195-.13.404-.235.625-.313.221-.078.462-.143.723-.195.26-.052.533-.11.82-.176.521-.17.983-.3 1.387-.39.416-.092.82-.163 1.211-.215.403-.065.82-.124 1.25-.176.429-.052.918-.13 1.464-.234.118.117.228.175.332.175.052-.117.111-.15.176-.097.078.039.111 0 .098-.118.13.222.293.41.488.567.208.143.436.267.684.37Z"/>
  <path stroke="#1C223C" stroke-linecap="round" stroke-width="2" d="M184.722 80.364c-.826.448-1.265.377-2.058.088-.677-.246-1.263-.24-1.819-.673-.246-.191-.586-.234-.842-.433-.213-.166-.471-.434-.749-.43-.498.008-1.557-1.784-.726-.044.441.924 1.104 1.668 1.499 2.595.302.71.816 1.364 1.168 2.053.606 1.188.55 2.478.841 3.738"/>
  <path stroke="#1C223C" stroke-linecap="round" stroke-width="2" d="M181.077 80.635c1.198 1.45 2.322 3.033 3.645 4.368.961.97 2.148 1.597 3.238 2.358 1.596 1.114 3.244 2.362 4.965 3.277 1.623.864 3.249 1.725 4.853 2.6 1.362.744 2.786 1.082 4.303 1.317.773.12 1.559.531 2.318.745.526.148 1.044.05 1.579.155.852.168 1.901.631 2.757.606.366-.01.759.077 1.115-.017.497-.13 1.03.19 1.531.097.364-.068.678-.003 1.066-.075.365-.068.664-.182.996-.258"/>
</svg>
