<svg xmlns="http://www.w3.org/2000/svg" width="103" height="42" fill="none" viewBox="0 0 103 42">
  <path fill="#E87449" d="M34.362 15.726a2.67 2.67 0 0 1-.703-.806 5.266 5.266 0 0 1-.425-1.025 6.993 6.993 0 0 1-.205-1.114c-.029-.39-.039-.761-.029-1.113.088-.264.195-.503.322-.718.127-.224.269-.434.425-.63.156-.205.318-.395.483-.571.176-.186.347-.371.513-.557a.31.31 0 0 1 .161.044c.04-.107.098-.2.176-.278.078-.078.161-.146.25-.205.087-.068.175-.132.263-.19a.997.997 0 0 0 .22-.235c.244-.058.459-.141.644-.249.195-.107.38-.225.557-.351a6.41 6.41 0 0 1 .542-.352c.185-.107.4-.19.644-.25.088-.097.195-.18.322-.248.137-.068.269-.132.396-.19.137-.06.264-.123.38-.19a.844.844 0 0 0 .308-.28c.059.079.142.108.25.089.107-.03.204-.059.292-.088.059-.01.108 0 .147.029a.51.51 0 0 1 .102.103c.04.029.069.048.088.058.03.01.059-.02.088-.088.078.01.098.044.059.103l-.059.117c.098-.02.176 0 .235.059.068.048.17.083.307.102.05.049.064.088.044.117a.371.371 0 0 0-.044.147c.352.107.576.278.674.513.098.224.108.463.03.717a1.72 1.72 0 0 1-.44.689 1.529 1.529 0 0 1-.689.41 24.94 24.94 0 0 0-.85.234 9.649 9.649 0 0 0-.746.264 4.42 4.42 0 0 0-.674.352 2.44 2.44 0 0 0-.542.454 3.033 3.033 0 0 0-.747.322c-.215.137-.42.288-.615.454a9.193 9.193 0 0 0-.542.527l-.528.528c0 .166-.029.293-.088.38a4.485 4.485 0 0 1-.19.264c.02.186.059.347.117.484.069.127.137.258.205.395.782.235 1.607.381 2.476.44.879.048 1.748.078 2.607.087.088.118.186.23.293.337.117.098.22.2.308.308.098.107.17.234.22.38a.912.912 0 0 1 .044.499 6.56 6.56 0 0 1-.543.483l-.585.44c-.088.01-.196.01-.323 0a4.587 4.587 0 0 0-.38-.015c-.127 0-.26.01-.396.03-.127.01-.25.038-.366.087a11.694 11.694 0 0 1-1.89-.22 15.723 15.723 0 0 1-1.787-.483 3.86 3.86 0 0 0-.337-.351.984.984 0 0 0-.469-.25Zm11.675 1.113a20.78 20.78 0 0 1-.893.264 3.66 3.66 0 0 1-.967.131c-.489 0-.874-.122-1.157-.366a.792.792 0 0 0-.132-.22l-.088-.117a.784.784 0 0 1-.044-.19 1.611 1.611 0 0 1-.279-.469 2.935 2.935 0 0 1-.146-.557 3.901 3.901 0 0 1-.015-.585c.02-.196.054-.381.103-.557a.26.26 0 0 0 .03-.117l.029-.132c.039-.156.078-.308.117-.454a1.39 1.39 0 0 1 .19-.381.38.38 0 0 1 0-.293c.04-.107.083-.205.132-.293.137-.371.249-.684.337-.938.098-.263.195-.522.293-.776.166-.44.322-.874.469-1.304.146-.43.278-.893.395-1.391.078-.05.137-.083.176-.103.058-.02.107-.034.146-.044.176.088.381.176.616.264.234.078.43.117.586.117a.526.526 0 0 1 .146.117l.059.059c.107.127.2.259.278.395.078.127.102.298.073.513-.058.088-.102.132-.132.132a3.336 3.336 0 0 1-.16.498 7.096 7.096 0 0 1-.162.41 8.593 8.593 0 0 0-.19.44 2.855 2.855 0 0 0-.147.542.766.766 0 0 0-.088.131 1.05 1.05 0 0 1-.044.132c-.02.05-.044.103-.073.161a.324.324 0 0 1-.102.132c-.03.254-.078.46-.147.615a9.494 9.494 0 0 1-.19.47c-.117.282-.225.566-.323.849a3.992 3.992 0 0 0-.16.967.36.36 0 0 1 .131-.03h.132c.088 0 .19.015.308.044.293-.156.61-.249.952-.278.351-.03.698-.049 1.04-.059h.41c.137 0 .264-.01.38-.029l.162.088h.117c.068 0 .127.005.176.015.117.107.23.185.337.234.107.049.22.093.337.132.107.039.21.083.307.132.108.039.21.097.308.175l.102.63c.069.088.098.147.088.176 0 .078-.02.137-.058.176l.03.161a.923.923 0 0 0-.309.103 2.126 2.126 0 0 0-.146.131 1.57 1.57 0 0 1-.176.015h-.088c-.136 0-.303.024-.498.073a2.576 2.576 0 0 0-.82-.132c-.108 0-.22.005-.337.015l-.352.03a4.08 4.08 0 0 1-.366.043 4.3 4.3 0 0 1-.366.015l-.337.088Zm7.236-.864c.05.293.03.522-.058.688a.755.755 0 0 1-.352.366 1.086 1.086 0 0 1-.512.147c-.196.01-.381 0-.557-.03a2.277 2.277 0 0 1-.264-.512 11.888 11.888 0 0 1-.542-1.86c.05-.118.078-.25.088-.396.02-.156.03-.313.03-.469.01-.156.014-.312.014-.469.01-.166.025-.322.044-.468.068-.41.166-.801.293-1.172a7.48 7.48 0 0 0 .322-1.157.364.364 0 0 0-.029-.25.344.344 0 0 1-.015-.22c.01-.038.04-.063.088-.072a.134.134 0 0 0 .088-.103.501.501 0 0 0 .015-.264.436.436 0 0 1 .058-.249c.05-.078.108-.19.176-.337a.84.84 0 0 0 .088-.483c.088-.059.17-.127.25-.205a2.2 2.2 0 0 1 .233-.205c.088-.068.181-.127.279-.176a.913.913 0 0 1 .38-.073.69.69 0 0 1 .147.322c.03.117.054.235.073.352.03.117.069.23.117.337a.531.531 0 0 0 .25.234v.293c0 .117.004.234.014.352.01.107.03.21.059.307a.31.31 0 0 0 .176.176c-.176.469-.342.933-.498 1.392-.147.458-.269.922-.367 1.391a9.546 9.546 0 0 0-.19 1.392c-.02.469.014.942.102 1.42Zm7.793 1.054c-.156.01-.351.005-.586-.014a1.247 1.247 0 0 0-.63.102 9.978 9.978 0 0 1-1.581-.19 11.32 11.32 0 0 1-1.48-.396 4.149 4.149 0 0 0-.293-.293.806.806 0 0 0-.395-.205 2.235 2.235 0 0 1-.572-.674 4.455 4.455 0 0 1-.351-.864 4.955 4.955 0 0 1-.176-.923c-.03-.322-.04-.63-.03-.923.147-.439.352-.815.616-1.127.273-.323.552-.64.835-.953a.982.982 0 0 0 .278-.175c.069-.069.137-.127.205-.176.078-.059.152-.113.22-.161a1.02 1.02 0 0 0 .205-.205c.205-.05.38-.118.527-.206.157-.097.308-.195.455-.292.146-.108.297-.206.454-.293.156-.088.336-.157.542-.206a.825.825 0 0 1 .278-.205c.107-.058.215-.112.322-.16.117-.06.225-.118.322-.177a.64.64 0 0 0 .25-.234c.048.078.117.108.204.088.088-.03.171-.059.25-.088.048-.01.087 0 .117.03a.923.923 0 0 1 .102.087c.03.03.054.05.073.059.03 0 .054-.025.074-.073.049 0 .063.024.044.073-.02.049-.035.083-.044.102.078-.01.141.01.19.059.059.04.147.063.264.073.039.05.049.088.03.117-.02.02-.03.059-.03.118.293.088.478.23.556.424a.8.8 0 0 1 .015.586 1.46 1.46 0 0 1-.366.572 1.323 1.323 0 0 1-.571.351c-.47.127-.913.269-1.333.425a2.43 2.43 0 0 0-1.011.66 2.466 2.466 0 0 0-.63.277 3.678 3.678 0 0 0-.513.381 6.415 6.415 0 0 0-.454.44 9.336 9.336 0 0 1-.44.44.468.468 0 0 1-.073.322 4.274 4.274 0 0 0-.146.22c.02.146.054.278.103.395.048.107.102.215.16.322a9.192 9.192 0 0 0 2.051.366c.733.05 1.465.078 2.198.088.068.098.146.19.234.278.098.079.186.166.264.264.078.088.141.19.19.308a.696.696 0 0 1 .03.41 3.673 3.673 0 0 1-.454.41c-.167.117-.333.24-.499.366Zm10.445-.556c-.469.02-.884.01-1.245-.03a3.656 3.656 0 0 1-1.04-.278c-.02-.01-.04-.034-.059-.073a.34.34 0 0 0-.059-.088.39.39 0 0 0-.22-.03.65.65 0 0 1-.204-.029 4.375 4.375 0 0 1-.367-.22 97.593 97.593 0 0 1-.454-.322 11.194 11.194 0 0 1-.498-.41 2.887 2.887 0 0 1-.41-.44.14.14 0 0 0-.117-.058.52.52 0 0 1-.132-.044 2.572 2.572 0 0 0-.718.66c-.195.263-.38.532-.556.805a9.223 9.223 0 0 1-.557.776c-.195.244-.444.43-.747.557a.59.59 0 0 1-.234-.044.771.771 0 0 1-.19-.117l-.177-.117a.672.672 0 0 0-.19-.088.711.711 0 0 0-.073-.322 2.432 2.432 0 0 0-.132-.279 1.546 1.546 0 0 1-.088-.249c-.02-.088 0-.17.059-.249a1.318 1.318 0 0 0-.264-.19c.059-.059.083-.113.073-.161a.393.393 0 0 0-.03-.147 3.004 3.004 0 0 1-.058-.161.24.24 0 0 1 .044-.176.64.64 0 0 0 .176-.03.637.637 0 0 1-.088-.13c.01-.02 0-.045-.03-.074-.019-.059-.009-.093.03-.103l.117-.058c.04-.479.122-.923.25-1.333.126-.41.268-.806.424-1.187.156-.38.308-.766.454-1.157.156-.39.283-.81.381-1.26a1.12 1.12 0 0 0 .25-.38c.067-.147.136-.294.204-.44.078-.147.161-.288.25-.425.097-.146.229-.264.395-.351.136.01.258.048.366.117a.72.72 0 0 0 .395.073c.03.049.054.098.074.146.029.05.063.098.102.147l.22-.044c.107.088.2.2.278.337.088.127.147.264.176.41a.89.89 0 0 1-.015.425.53.53 0 0 1-.278.307c.01.05.01.088 0 .118a.13.13 0 0 1-.015.058.13.13 0 0 0-.014.059c0 .02.014.049.044.088a1.318 1.318 0 0 0-.44.615 2.39 2.39 0 0 0-.16.703c.116-.117.243-.23.38-.337.146-.117.293-.23.44-.337.156-.107.302-.21.439-.307a4.89 4.89 0 0 0 .395-.293 5.92 5.92 0 0 1 .923-.703c.303-.186.62-.391.952-.616.079-.02.137-.02.176 0 .049.01.098.025.147.044 0-.058-.02-.093-.059-.102-.03-.01-.039-.05-.03-.117.147-.04.274-.083.382-.132.107-.059.224-.113.351-.161.088.087.171.18.25.278a.51.51 0 0 0 .321.161c.05.107.108.19.176.249l.205.147a.75.75 0 0 1 .176.175c.059.069.093.176.103.323a6.478 6.478 0 0 1-.132.22c-.04.077-.078.17-.117.278a5.267 5.267 0 0 1-.601.468 12.78 12.78 0 0 1-.6.396c-.206.127-.416.254-.63.38a6.167 6.167 0 0 0-.66.455.879.879 0 0 1-.19.19 11.72 11.72 0 0 0-.22.161 1.809 1.809 0 0 0-.22.162.651.651 0 0 0-.16.205.276.276 0 0 1-.089.014.276.276 0 0 0-.087.015.334.334 0 0 1-.147.161.28.28 0 0 0-.117.161c.146.313.337.552.571.718.235.166.498.288.791.366.293.069.61.108.952.117h1.07c.039-.01.053-.029.044-.058 0-.04.024-.054.073-.044a1.2 1.2 0 0 1 .542.337c.127.136.278.273.454.41-.02.371-.132.679-.337.923a2.15 2.15 0 0 1-.82.586Zm16.538.263c-.098.05-.19.093-.279.132a.617.617 0 0 1-.278.059c-.38-.283-.58-.777-.6-1.48-.01-.703.141-1.596.454-2.68.048-.03.073-.088.073-.176l-.132-.147a.48.48 0 0 0-.117.015c-.03.01-.054.044-.073.103-.254.185-.532.38-.835.586-.303.195-.62.38-.952.556a6.3 6.3 0 0 1-.996.41c-.333.108-.66.161-.982.161-.82 0-1.435-.415-1.846-1.245l-.117-.22-.117.191a1.63 1.63 0 0 0-.132.249 4.298 4.298 0 0 0-.176.41 6.966 6.966 0 0 0-.16.484c-.04.156-.055.293-.045.41-.088.088-.18.19-.278.307-.098.117-.171.25-.22.396a.287.287 0 0 0 .03.22.33.33 0 0 1-.132.205 2.15 2.15 0 0 1-.132.146.683.683 0 0 0-.103.132.831.831 0 0 0-.044.146.742.742 0 0 1-.014.147.6.6 0 0 1-.03.19c-.166.342-.297.562-.395.66a.508.508 0 0 1-.396.16c-.078 0-.205-.014-.38-.043a2.103 2.103 0 0 1-.352-.557 4.784 4.784 0 0 1-.234-.776 4.66 4.66 0 0 1-.074-.82c.01-.284.059-.528.147-.733 0-.01.039-.107.117-.293.078-.186.176-.425.293-.718.127-.293.269-.615.425-.967.156-.36.312-.708.469-1.04.156-.341.302-.654.439-.937a7.6 7.6 0 0 1 .366-.645c.078-.117.147-.224.205-.322.069-.107.132-.21.19-.308.177-.302.343-.551.499-.747.166-.205.405-.366.718-.483.214.088.37.19.468.308l.03.16c.039.098.097.147.175.147.108.03.196.059.264.088.078.02.161.04.25.059.067.078.13.17.19.278.078.117.15.234.22.352.077.107.136.22.175.337a.8.8 0 0 1 .073.336c.01.118-.01.24-.058.367l.014.146c.05.088.059.21.03.366a1.55 1.55 0 0 0-.015.22c0 .068.01.147.03.235.175.136.331.204.468.204a.881.881 0 0 0 .425-.102c.136-.078.264-.156.38-.234a1.56 1.56 0 0 1 .235-.147.578.578 0 0 1 .234-.088l.47-.44c.146-.126.297-.253.453-.38.293-.234.576-.488.85-.762.273-.273.493-.615.659-1.025a.59.59 0 0 1 .308-.088c.107 0 .22.024.337.073.117.049.23.098.337.147a.72.72 0 0 0 .073.044c.029.01.053.02.073.029 0 .098.039.18.117.249.04.03.064.049.073.059.01.01.025.02.044.029.147.078.24.156.279.234a.91.91 0 0 0 .366.513.669.669 0 0 0 0 .278c.03.078.063.161.102.25l.03.087c.01.03.024.064.044.103l-.279-.03.044.279c.02.136.005.288-.044.454a1.402 1.402 0 0 1-.146.395c.01.254.014.454.014.6.01.138.005.27-.014.396-.02.118-.049.23-.088.337-.03.108-.073.225-.132.352a4.247 4.247 0 0 1-.22 1.714c-.175.507-.36.986-.556 1.435a.964.964 0 0 1-.074.147l-.058.146c-.088.03-.166.064-.234.103a4.47 4.47 0 0 0-.22.102Zm10.254-7.983c.01.068.01.122 0 .161 0 .03-.005.059-.015.088v.102c0 .03.01.079.03.147-.206.332-.445.562-.718.688a3.885 3.885 0 0 1-.865.264 57.18 57.18 0 0 0-.966.161 2.85 2.85 0 0 0-.967.381.44.44 0 0 0-.352 0c-.097.049-.244.064-.44.044a.551.551 0 0 1-.219.132c-.088.02-.176.044-.264.073a.54.54 0 0 1 .044.279c0 .087.015.16.044.22.342.028.718.024 1.128-.016.42-.039.83-.063 1.23-.073.01.05.005.083-.014.103-.02.01-.024.034-.015.073.069.049.137.112.205.19l.206.206c.068.068.136.126.205.175a.473.473 0 0 0 .263.044c.04.078.064.166.074.264.019.088.01.18-.03.278-.156.108-.312.22-.469.337a4.165 4.165 0 0 1-.498.293 2.994 2.994 0 0 1-.542.22 2.128 2.128 0 0 1-.63.059h-.117c-.02 0-.049-.015-.088-.044-.078.048-.19.063-.337.043-.136-.019-.244-.004-.322.045a.825.825 0 0 0-.395-.06 1.25 1.25 0 0 1-.396-.058 5.078 5.078 0 0 0-.425.66 5.919 5.919 0 0 0-.337.747c.333.048.606.068.82.058.225-.01.435-.024.63-.044.196-.03.396-.053.601-.073.205-.03.464-.04.777-.03.195-.107.425-.175.688-.205a3.99 3.99 0 0 0 .747-.175c.078.03.147.083.205.16.059.07.113.138.161.206.059.059.118.112.176.161a.28.28 0 0 0 .22.059.264.264 0 0 1 .073.146.83.83 0 0 1 .044.147c.01.049.025.092.044.132.03.029.073.039.132.029-.147.322-.318.571-.513.747a1.92 1.92 0 0 1-.644.38 4.574 4.574 0 0 1-.82.206c-.294.049-.62.107-.982.176a.326.326 0 0 1-.22-.015.65.65 0 0 0-.205-.03 9.252 9.252 0 0 1-.806.133c-.312.039-.63.053-.952.043a4.043 4.043 0 0 1-.922-.131 1.457 1.457 0 0 1-.718-.381.535.535 0 0 1-.161-.235c-.02-.097-.084-.17-.19-.22a3.971 3.971 0 0 0-.06-.424l-.087-.484a10.36 10.36 0 0 1-.074-.512c-.01-.166 0-.318.03-.454a.966.966 0 0 1 .175-.396.43.43 0 0 0 .103-.38c.049-.01.078-.035.088-.074.01-.049.049-.068.117-.059a5.9 5.9 0 0 1 .19-.498c.069-.156.137-.307.206-.454a9.495 9.495 0 0 0 .439-.952 1.33 1.33 0 0 1-.308-.41 2.936 2.936 0 0 1-.131-.454 7.752 7.752 0 0 1-.074-.469 3.019 3.019 0 0 0-.102-.498 1.21 1.21 0 0 1 .351-.351c.147-.098.303-.176.47-.235.165-.058.346-.107.541-.146.195-.04.4-.083.615-.132a11.9 11.9 0 0 1 1.04-.293c.313-.069.616-.122.909-.161.302-.05.615-.093.937-.132.322-.04.689-.098 1.099-.176.088.088.17.132.249.132.039-.088.083-.112.132-.073.058.029.083 0 .073-.088.097.166.22.307.366.425.156.107.327.2.513.278Zm3.691-1.831c0 .088-.015.195-.044.322l-.058.381a1.42 1.42 0 0 0-.015.352c.01.097.054.16.132.19a10.24 10.24 0 0 0-.366 1.304 66.8 66.8 0 0 0-.162 1.01c-.039.313-.092.645-.161.996-.068.352-.19.782-.366 1.29-.107.312-.239.532-.395.659a.82.82 0 0 1-.498.176c-.176 0-.357-.05-.542-.147a3.806 3.806 0 0 1-.513-.322 2.986 2.986 0 0 1-.015-.674c.03-.274.064-.557.103-.85a58.2 58.2 0 0 1 .117-.835c.039-.273.068-.502.088-.688.097-.107.166-.195.205-.264a.583.583 0 0 0 .073-.22c.02-.078.034-.175.044-.292.01-.118.034-.284.073-.498.02-.108.01-.2-.029-.279a.44.44 0 0 1-.015-.249.191.191 0 0 1 .088-.088.134.134 0 0 0 .088-.102.544.544 0 0 0 .03-.293.427.427 0 0 1 .043-.279c.05-.078.108-.2.176-.366a1.04 1.04 0 0 0 .088-.542 1.82 1.82 0 0 0 .249-.234 2.65 2.65 0 0 1 .234-.234 1.28 1.28 0 0 1 .279-.19.911.911 0 0 1 .381-.074c.078.107.136.21.175.307.04.098.074.19.103.279.039.088.088.17.146.249a.736.736 0 0 0 .264.205Zm-1.45 8.335c.019.078.034.151.044.22.01.068.019.141.029.22-.058.204-.122.39-.19.556l-.059.132a.105.105 0 0 0-.014.044c0 .01.004.024.014.044.01.01.015.049.015.117l-.073.176a.558.558 0 0 1-.176.16 1.195 1.195 0 0 1-.19.103.325.325 0 0 1-.103.044.484.484 0 0 0-.073.059l-.044.176-.205.029a1.773 1.773 0 0 1-.425.058h-.161c-.118-.107-.21-.19-.279-.248a1.413 1.413 0 0 0-.234-.162 1.403 1.403 0 0 1-.19-.483c-.02-.127-.044-.21-.074-.25l-.205-.204.176-.132-.176-.278a5.1 5.1 0 0 1 .264-.19.963.963 0 0 0 .146-.118 1.29 1.29 0 0 0 .147-.176c.049-.068.127-.18.234-.337l.132-.19.176.102c.049.03.136.06.264.088.136.02.253.04.351.059.156.049.308.088.454.117.156.02.278.069.366.147l.059.117Z"/>
  <path stroke="#E87449" stroke-linecap="round" stroke-width="2" d="M8.06 29.238c-.363.867-.75 1.086-1.55 1.358-.682.231-1.135.603-1.84.613-.311.004-.603.184-.928.189-.27.003-.638-.044-.852.133-.384.318-2.332-.417-.595.42.922.444 1.906.61 2.793 1.086.68.364 1.49.553 2.196.87 1.217.548 1.98 1.59 2.995 2.39"/>
  <path stroke="#E87449" stroke-linecap="round" stroke-width="2" d="M5.387 31.73c1.841.382 3.709.914 5.576 1.127 1.356.155 2.675-.098 4.002-.187 1.942-.13 4.008-.187 5.923-.55 1.806-.343 3.614-.689 5.413-1.01 1.527-.272 2.85-.899 4.18-1.665.678-.39 1.549-.561 2.274-.87.503-.213.845-.614 1.329-.866.77-.403 1.878-.698 2.53-1.253.278-.238.64-.415.859-.71.305-.414.921-.497 1.254-.883.242-.28.528-.427.785-.726.242-.281.404-.558.615-.825"/>
</svg>
