<svg xmlns="http://www.w3.org/2000/svg" width="155" height="40" fill="none" viewBox="0 0 155 40">
  <path fill="#1C223C" d="M45.816 29.3a3.559 3.559 0 0 1-.937-1.073 7.025 7.025 0 0 1-.566-1.368 9.32 9.32 0 0 1-.274-1.484c-.039-.52-.052-1.016-.039-1.484.117-.352.26-.67.43-.957.169-.3.358-.58.566-.84a9.42 9.42 0 0 1 .645-.762c.234-.247.462-.495.683-.742.078 0 .15.02.215.058a1 1 0 0 1 .234-.37c.105-.105.215-.196.332-.274.118-.091.235-.176.352-.254.117-.091.215-.195.293-.313.325-.078.612-.188.86-.332.26-.143.507-.299.742-.468a8.55 8.55 0 0 1 .722-.469c.248-.143.534-.254.86-.332.117-.13.26-.24.43-.332.182-.091.357-.176.527-.254.182-.078.351-.163.507-.254a1.12 1.12 0 0 0 .41-.371c.079.104.19.143.333.117.143-.039.273-.078.39-.117a.245.245 0 0 1 .196.04.65.65 0 0 1 .136.136.882.882 0 0 0 .117.078c.04.013.079-.026.118-.117.104.013.13.058.078.136l-.078.157c.13-.026.234 0 .312.078.091.065.228.11.41.137.065.065.085.117.059.156a.497.497 0 0 0-.059.195c.47.143.769.371.899.684.13.3.143.618.039.957-.104.325-.3.631-.586.918-.274.273-.58.455-.918.547-.404.104-.781.208-1.133.312-.338.104-.67.221-.996.352-.313.13-.612.286-.898.468-.274.17-.515.371-.723.606a4.036 4.036 0 0 0-.996.43 7.31 7.31 0 0 0-.82.605 12.24 12.24 0 0 0-.723.703l-.703.703c0 .222-.04.39-.117.508a5.904 5.904 0 0 1-.254.352c.026.247.078.462.156.644.091.17.182.345.273.527a14.92 14.92 0 0 0 3.301.586c1.172.066 2.33.105 3.477.118a4.2 4.2 0 0 0 .39.449c.157.13.293.267.41.41.13.143.228.313.293.508.078.182.098.404.059.664a8.735 8.735 0 0 1-.723.644l-.78.586a2.357 2.357 0 0 1-.43 0 6.144 6.144 0 0 0-.508-.02c-.17 0-.345.014-.528.04a1.576 1.576 0 0 0-.488.117c-.82-.026-1.66-.124-2.52-.293a20.975 20.975 0 0 1-2.382-.644 5.124 5.124 0 0 0-.45-.47 1.312 1.312 0 0 0-.625-.331Zm21.797-4.16c-.013.157 0 .307.04.45.038.143.084.286.136.43.065.13.124.267.176.41.052.143.091.286.117.43a2.35 2.35 0 0 1 0 .605 3.58 3.58 0 0 1-.137.625c-.065.195-.15.378-.254.547a1.056 1.056 0 0 1-.37.351 1.92 1.92 0 0 1-.665.547c-.26.13-.501.287-.722.469a1.475 1.475 0 0 1-.489.195c-.169.04-.345.078-.527.117a9.128 9.128 0 0 1-.508.254c-.195.078-.397.157-.605.235a5.49 5.49 0 0 1-.625.156c-.209.026-.39.033-.547.02a4.77 4.77 0 0 1-1.153.273c-.364.052-.794.026-1.289-.078a3.353 3.353 0 0 1-1.308-.059 3.259 3.259 0 0 1-1.055-.488 4.347 4.347 0 0 1-.8-.82 5.48 5.48 0 0 1-.547-1.016c-.105-.742-.079-1.413.078-2.012a6.846 6.846 0 0 1 .664-1.68c.3-.52.638-.995 1.015-1.425.378-.443.742-.873 1.094-1.29.078.027.137.027.176 0a.676.676 0 0 0 .136-.136c.04-.065.079-.124.118-.176a.34.34 0 0 1 .175-.097.903.903 0 0 1 .391-.43c.182-.104.326-.248.43-.43A.86.86 0 0 0 61.05 21c.078-.052.15-.11.215-.176a2.98 2.98 0 0 1 .234-.176.678.678 0 0 1 .273-.136v-.215c.235-.104.404-.221.508-.352.117-.143.254-.312.41-.508a2.65 2.65 0 0 1 .274-.019c.078 0 .189-.013.332-.04a2.75 2.75 0 0 1 .273-.41c.091-.09.222-.188.39-.292.157.078.327.13.509.156.195.026.364.11.508.254a.57.57 0 0 0 .117.313c.065.065.137.13.215.195.078.052.15.11.214.176.079.065.13.156.157.273.052.013.084.006.097-.02.026-.026.065-.032.117-.02.04.183.085.307.137.372.052.052.104.163.156.332-.065.13-.117.267-.156.41a.407.407 0 0 1-.234.293c-.013.091.013.143.078.156.065 0 .104.033.117.098.013.117-.006.202-.058.254.312.508.592 1.048.84 1.621.247.56.527 1.094.84 1.602Zm-2.441 1.856c.052-.143.117-.26.195-.351.091-.092.143-.228.156-.41a.952.952 0 0 1-.117-.235 1.62 1.62 0 0 1-.02-.293 7.902 7.902 0 0 1-.742-1.289 9.601 9.601 0 0 0-.703-1.309.49.49 0 0 1-.136.157c-.065.052-.137.039-.215-.04a.418.418 0 0 1-.137.235.41.41 0 0 1-.215.059 2.343 2.343 0 0 1-.254-.059 1.205 1.205 0 0 1-.215-.137c-.377.3-.755.593-1.132.88a5.653 5.653 0 0 0-1.016.995.34.34 0 0 1-.098.04c-.013-.014-.052-.007-.117.019a3.205 3.205 0 0 1-.39.683 24.69 24.69 0 0 0-.43.606c-.143.208-.267.43-.371.664a2.238 2.238 0 0 0-.176.82c.221.183.482.293.781.332.3.04.606.046.918.02.326-.026.638-.065.938-.117a4.24 4.24 0 0 1 .86-.098c.546-.13 1.015-.3 1.405-.508.391-.221.801-.442 1.23-.664Zm7.637.45a.351.351 0 0 0-.254.214 8.102 8.102 0 0 0-.157.332 2.515 2.515 0 0 1-.136.332c-.04.091-.104.137-.196.137a.518.518 0 0 1-.117.273 4.346 4.346 0 0 0-.156.254.867.867 0 0 0-.117.274.519.519 0 0 0 .039.332.512.512 0 0 0-.196.332c-.026.143-.058.28-.097.41a.715.715 0 0 1-.156.332c-.079.091-.222.13-.43.117-.04.052-.046.085-.02.098.026.013.046.058.059.137-.143-.026-.254-.02-.332.02a.496.496 0 0 1-.254.097 1.349 1.349 0 0 1-.625-.41 4.62 4.62 0 0 1-.43-.645 18.574 18.574 0 0 1-.332-.742 6.384 6.384 0 0 0-.273-.645.882.882 0 0 0 .02-.41.864.864 0 0 0-.137-.351 291.95 291.95 0 0 1 2.09-4.336 156.517 156.517 0 0 0 2.148-4.551c.3.117.592.254.879.41.3.143.566.313.8.508.248.195.456.423.626.683.169.248.28.528.332.84-.026.078-.059.111-.098.098-.026-.026-.052-.02-.078.02.052.065.078.11.078.136a.083.083 0 0 1 0 .078v.117c0 .04.02.098.059.176-.052-.013-.091-.006-.117.02-.014.026-.053.026-.118 0 .052.143.065.26.04.351a.822.822 0 0 1-.079.254.976.976 0 0 0-.097.235.524.524 0 0 0 .02.312.133.133 0 0 0-.099.04.23.23 0 0 0-.039.058l-.058.058c-.013.014-.04.014-.078 0 .039.287.052.573.039.86l-.04.879c0 .286.007.592.02.918.013.312.059.638.137.976a3.21 3.21 0 0 0 1.113-1.054c.287-.43.514-.912.684-1.446a9.754 9.754 0 0 0 .41-1.719c.091-.611.189-1.236.293-1.875.117-.117.208-.26.273-.43a6.14 6.14 0 0 0 .176-.527c.052-.195.104-.384.156-.566a2.78 2.78 0 0 1 .196-.527.97.97 0 0 1 .488.195c.143.091.273.195.39.313.118.104.241.208.372.312.13.091.293.15.488.176.156.221.3.436.43.644.13.209.215.43.254.664a1.443 1.443 0 0 0-.157.352 4.27 4.27 0 0 1-.097.39c-.04.13-.091.255-.157.372a.91.91 0 0 1-.273.273 8.79 8.79 0 0 1-.156.938c-.052.273-.111.546-.176.82a15 15 0 0 0-.137.86 5.587 5.587 0 0 0-.039.956l-.332.957a9.724 9.724 0 0 0-.273.918c-.209.17-.371.371-.489.606-.117.234-.24.469-.37.703-.053.052-.085.065-.098.039-.013-.026-.059-.046-.137-.059.013.052.013.092 0 .118a.304.304 0 0 1-.059.078.212.212 0 0 0-.039.078c0 .039.013.091.04.156a1.548 1.548 0 0 0-.489.332c-.143.143-.3.274-.469.39a1.321 1.321 0 0 1-.586.235c-.221.04-.514-.006-.878-.137a7.772 7.772 0 0 1-1.426-1.347 6.546 6.546 0 0 1-.996-1.817Zm18.398-5.84c-.325 0-.677.025-1.055.078-.377.039-.748.084-1.113.136-.26.04-.514.072-.762.098a14.82 14.82 0 0 1-.644.059 9.685 9.685 0 0 1-.566 1.406c-.105.221-.202.45-.294.683-.078.222-.156.463-.234.723-.13.208-.24.404-.332.586-.078.17-.143.365-.195.586a2.134 2.134 0 0 0-.352.625 5.09 5.09 0 0 0-.176.547l-.078.234a.485.485 0 0 0-.137.195.26.26 0 0 1-.097.118 1.103 1.103 0 0 1-.137.43c-.026.064-.045.13-.058.195a.531.531 0 0 0-.02.117c0 .13-.032.215-.098.254a.596.596 0 0 1 0 .215l-.039.195a1.02 1.02 0 0 0-.039.371c.04.052.072.098.098.137.039.039.065.09.078.156a.859.859 0 0 0 .176.098c.052.039.13.084.234.136l.176.196c.065.377.006.677-.176.898-.195.248-.527.371-.996.371h-.234a.475.475 0 0 1-.118-.156l-.253-.098a.394.394 0 0 1-.176-.156 15.17 15.17 0 0 1-.41-.195l-.176-.098v-.234a1.421 1.421 0 0 1-.215-.39 5.06 5.06 0 0 1-.098-.43 2.475 2.475 0 0 0-.097-.333.87.87 0 0 0-.117-.273c-.026-.755.045-1.393.214-1.914.17-.52.346-1.022.528-1.504l.312-.781a9.01 9.01 0 0 0 .274-.84l.175-.195c.092-.209.163-.378.215-.508l.196-.43c.039-.091.071-.176.097-.254.04-.091.072-.17.098-.234-.078 0-.15.006-.215.02a.995.995 0 0 0-.195.019c-.078.013-.15.026-.215.039h-.195a.687.687 0 0 1-.196-.02 1.12 1.12 0 0 1-.468.098h-.313a.173.173 0 0 0-.078-.02c-.13 0-.234.02-.313.06h-.644a.32.32 0 0 0-.098.019h-.097c-.092 0-.19-.007-.293-.02a1.38 1.38 0 0 1-.332-.137c-.157-.208-.26-.319-.313-.332l-.176-.234a1.031 1.031 0 0 0-.058-.215 6.154 6.154 0 0 1-.078-.254c-.052-.13-.105-.267-.157-.41a2.274 2.274 0 0 1-.058-.547.494.494 0 0 1 .078-.234 3.03 3.03 0 0 0 .097-.137l.06-.293.253.02h.547c.417 0 .84-.013 1.27-.04.43-.038.872-.078 1.328-.117l.78-.078.84-.078c.053-.117.105-.228.157-.332l.195-.098c.235-.012.397.02.489.098.104.065.188.13.253.195l.86-.078c.3-.039.599-.084.898-.136.443-.066.886-.124 1.328-.176.456-.052.892-.078 1.309-.078.182 0 .358.006.527.02.17.012.326.032.469.058l.195.137c.04.078.091.15.157.214l.234.196c.156.143.313.312.469.508.156.195.215.481.175.859-.104.156-.182.247-.234.273l-.176.235-.195-.02a.574.574 0 0 0-.215.04 1.03 1.03 0 0 0-.195.058l-.156.078a4.163 4.163 0 0 1-.176.039h-.293a1.1 1.1 0 0 0-.215-.02Zm7.813 7.753c-.079.222-.196.45-.352.684a2.888 2.888 0 0 1-1.191 1.035 2.036 2.036 0 0 1-.782.195c-.169-.039-.286-.084-.351-.136a2.062 2.062 0 0 0-.176-.117.492.492 0 0 0-.117-.059.306.306 0 0 0-.078-.059l-.235-.097.078-.254c.026-.104.02-.182-.02-.235a1.255 1.255 0 0 0-.234-.253l-.117-.118a.77.77 0 0 1-.097-.117l-.332-.37.527-.138c.325-.09.54-.208.644-.351.118-.143.163-.384.137-.723a1.658 1.658 0 0 0-.664-.02c-.17.04-.345.085-.527.137a11.74 11.74 0 0 1-.723.176c-.234.04-.495.059-.781.059h-.293a16.903 16.903 0 0 0-.293-.04l-.195-.038c-.026-.144-.052-.222-.079-.235l-.078-.078a2.4 2.4 0 0 1-.214-.254.59.59 0 0 1-.04-.43.935.935 0 0 1-.117-.351 2.192 2.192 0 0 0-.175.488l-.079.195-.195.04c-.026.013-.045.045-.058.097a.322.322 0 0 0-.02.098l-.098.332-.078.078a.307.307 0 0 0-.078.059 3.546 3.546 0 0 1-.098.351 9.47 9.47 0 0 1-.117.332c-.065.17-.123.339-.176.508-.039.156-.052.313-.039.469l-.078.215a1.006 1.006 0 0 1-.215.195l-.234.117a.451.451 0 0 1-.117.078.772.772 0 0 0-.098.04l-.058.214-.235.04c-.143.025-.247.045-.312.058a.823.823 0 0 1-.196.02l-.195-.02a51.796 51.796 0 0 1-.332-.274 1.534 1.534 0 0 0-.273-.215c-.118-.156-.183-.273-.196-.351a6.497 6.497 0 0 0-.039-.215.643.643 0 0 1-.039-.195.248.248 0 0 0-.058-.117l-.254-.235.214-.176.02-.332c.26-.664.534-1.302.82-1.914l.918-1.875c.105-.208.202-.416.293-.625l.313-.625a.434.434 0 0 1 .02-.312 8.62 8.62 0 0 0 .35-.586l.274-.547c.105-.221.209-.436.313-.645.117-.208.26-.423.43-.644l.312-.137c.04-.013.085-.026.137-.039a.388.388 0 0 1 .175-.039l.293.04c.365-.17.684-.404.957-.704.274-.312.554-.684.84-1.113l.196-.274.254.157c.065.039.156.078.273.117.117.026.24.058.371.098.234.052.456.11.664.175.209.065.378.163.508.293.078.209.124.365.137.469.013.104.032.208.058.313.04.22.072.442.098.663.039.222.065.47.078.743.065.221.117.442.156.664.052.208.098.423.137.644.065.313.13.619.195.918.066.287.15.56.254.82.104 0 .17.007.196.02a1.11 1.11 0 0 1 .195-.058c.078-.014.163-.026.254-.04l.215-.02.078.196c.013.065.078.13.195.196.17.013.293.052.371.117.078.052.15.11.215.175a.61.61 0 0 0 .156.118l.293.117-.156.293c-.13.234-.319.462-.566.683a3.415 3.415 0 0 1-.801.528c.013.078.02.156.02.234.012.065.032.137.058.215.039.221.072.45.098.684a3.35 3.35 0 0 1 0 .722l-.04.078Zm-5.645-3.379c.39-.026.742-.052 1.055-.078.325-.039.683-.097 1.074-.175a76.569 76.569 0 0 0-.625-2.481l-.117.195c-.26.274-.515.58-.762.918a13.07 13.07 0 0 0-.606.957l-.234.352c-.078.117-.15.234-.215.352.078-.014.15-.02.215-.02.078 0 .15-.006.215-.02Zm15.059 5.06a5.554 5.554 0 0 1-.782-.02 1.664 1.664 0 0 0-.84.136c-.69-.026-1.393-.11-2.109-.254a14.931 14.931 0 0 1-1.973-.527 5.528 5.528 0 0 0-.39-.39 1.073 1.073 0 0 0-.528-.274 2.98 2.98 0 0 1-.761-.898 5.888 5.888 0 0 1-.469-1.153 6.63 6.63 0 0 1-.234-1.23c-.039-.43-.052-.84-.039-1.23a4.506 4.506 0 0 1 .82-1.505c.364-.43.736-.852 1.113-1.27.169-.077.293-.155.371-.234.091-.09.183-.169.274-.234.104-.078.202-.15.293-.215a1.36 1.36 0 0 0 .273-.273c.274-.065.508-.157.703-.274.209-.13.41-.26.606-.39.195-.143.397-.274.605-.39a2.72 2.72 0 0 1 .723-.274 1.1 1.1 0 0 1 .371-.274c.143-.078.286-.15.43-.215a6.43 6.43 0 0 0 .429-.234.848.848 0 0 0 .332-.313c.065.105.157.144.274.118.117-.04.228-.078.332-.117.065-.014.117 0 .156.039.052.039.098.078.137.117a.418.418 0 0 0 .097.078c.04 0 .072-.033.098-.098.065 0 .085.033.059.098-.026.065-.046.11-.059.137a.29.29 0 0 1 .254.078.754.754 0 0 0 .352.097c.052.066.065.118.039.157-.026.026-.039.078-.039.156.39.117.638.306.742.566.104.248.11.508.019.782a1.951 1.951 0 0 1-.488.761c-.234.235-.488.39-.762.469a20.73 20.73 0 0 0-1.777.566 3.244 3.244 0 0 0-1.348.88 3.308 3.308 0 0 0-.84.37 4.879 4.879 0 0 0-.683.508c-.208.182-.41.378-.606.586-.182.195-.377.39-.586.586.013.182-.019.326-.097.43-.065.09-.13.189-.196.293.027.195.072.37.137.527.065.143.137.287.215.43.859.26 1.771.423 2.734.488a55.11 55.11 0 0 0 2.93.117 2.7 2.7 0 0 0 .313.371c.13.104.247.222.351.352.104.117.189.254.254.41.065.143.078.326.039.547a4.887 4.887 0 0 1-.605.547c-.222.156-.443.319-.664.488Zm13.261-9.434c-.325 0-.677.025-1.054.078-.378.039-.749.084-1.114.136a17.305 17.305 0 0 1-1.406.157 9.9 9.9 0 0 1-.273.761 9.685 9.685 0 0 1-.293.645c-.104.221-.202.45-.293.683-.078.222-.157.463-.235.723a7.15 7.15 0 0 0-.332.586c-.078.17-.143.365-.195.586a2.161 2.161 0 0 0-.352.625c-.078.208-.136.39-.175.547l-.078.234a.476.476 0 0 0-.137.195.261.261 0 0 1-.098.118 1.089 1.089 0 0 1-.137.43c-.026.064-.045.13-.058.195a.544.544 0 0 0-.02.117c0 .13-.032.215-.097.254a.596.596 0 0 1 0 .215l-.039.195a1.02 1.02 0 0 0-.039.371c.039.052.071.098.097.137a.297.297 0 0 1 .078.156.854.854 0 0 0 .176.098c.052.039.13.084.234.136l.176.196c.065.377.007.677-.176.898-.195.248-.527.371-.996.371h-.234a.474.474 0 0 1-.117-.156l-.254-.098a.394.394 0 0 1-.176-.156 15.142 15.142 0 0 1-.41-.195l-.176-.098v-.234a1.425 1.425 0 0 1-.215-.39 5.094 5.094 0 0 1-.097-.43 2.476 2.476 0 0 0-.098-.333.868.868 0 0 0-.117-.273c-.026-.755.045-1.393.215-1.914.169-.52.345-1.022.527-1.504l.313-.781a9.15 9.15 0 0 0 .273-.84l.176-.195c.091-.209.163-.378.215-.508l.195-.43c.039-.091.072-.176.098-.254.039-.091.071-.17.097-.234a1.1 1.1 0 0 0-.215.02.992.992 0 0 0-.195.019c-.078.013-.15.026-.215.039h-.195a.684.684 0 0 1-.195-.02c-.144.065-.3.098-.469.098h-.313a.172.172 0 0 0-.078-.02c-.13 0-.234.02-.312.06h-.645a.316.316 0 0 0-.097.019h-.098c-.091 0-.189-.007-.293-.02a1.379 1.379 0 0 1-.332-.137c-.156-.208-.261-.319-.313-.332l-.175-.234a1.037 1.037 0 0 0-.059-.215 6.16 6.16 0 0 1-.078-.254 13.87 13.87 0 0 1-.156-.41 2.272 2.272 0 0 1-.059-.547.495.495 0 0 1 .078-.234c.039-.052.072-.098.098-.137l.058-.293.254.02h.547c.417 0 .84-.013 1.27-.04.429-.038.872-.078 1.328-.117l.781-.078.84-.078a8.11 8.11 0 0 1 .156-.332l.196-.098c.234-.012.397.02.488.098.104.065.189.13.254.195l.859-.078c.3-.039.599-.084.899-.136a42.7 42.7 0 0 1 1.328-.176c.455-.052.892-.078 1.308-.078.183 0 .358.006.528.02.169.012.325.032.468.058l.196.137c.039.078.091.15.156.214l.234.196c.156.143.313.312.469.508.156.195.215.481.176.859-.104.156-.183.247-.235.273l-.175.235-.196-.02a.579.579 0 0 0-.215.04 1.12 1.12 0 0 0-.195.058l-.156.078a3.841 3.841 0 0 1-.176.039h-.293a1.1 1.1 0 0 0-.215-.02Zm19.395 9.042c-.13.066-.254.124-.371.176a.82.82 0 0 1-.371.078c-.508-.377-.775-1.035-.801-1.972-.013-.938.189-2.13.605-3.575.065-.039.098-.117.098-.234l-.176-.195a.641.641 0 0 0-.156.02c-.039.012-.072.058-.098.136a37 37 0 0 1-1.113.781c-.404.26-.827.508-1.269.742-.43.222-.873.404-1.329.547a4.232 4.232 0 0 1-1.308.215c-1.094 0-1.914-.553-2.461-1.66l-.156-.293-.157.254a2.201 2.201 0 0 0-.175.332 5.491 5.491 0 0 0-.235.547c-.078.208-.15.423-.215.644a1.708 1.708 0 0 0-.058.547 6.135 6.135 0 0 0-.371.41 1.596 1.596 0 0 0-.293.528.383.383 0 0 0 .039.293.44.44 0 0 1-.176.273c-.052.065-.111.13-.176.195a.952.952 0 0 0-.137.176c-.026.065-.045.13-.058.196 0 .065-.007.13-.02.195a.8.8 0 0 1-.039.254c-.221.456-.397.748-.527.879a.677.677 0 0 1-.527.215 3.49 3.49 0 0 1-.508-.059 2.806 2.806 0 0 1-.469-.742 6.392 6.392 0 0 1-.312-1.035 6.128 6.128 0 0 1-.098-1.094c.013-.378.078-.703.195-.977 0-.013.052-.143.156-.39.105-.248.235-.567.391-.957.169-.39.358-.82.566-1.29.209-.481.417-.943.625-1.386.209-.456.404-.873.586-1.25.196-.378.358-.664.489-.86.104-.156.195-.299.273-.43.091-.142.176-.28.254-.41a8.21 8.21 0 0 1 .664-.995c.221-.274.54-.489.957-.645.287.117.495.254.625.41l.039.215c.052.13.13.195.235.195.143.04.26.078.351.118.104.026.215.052.332.078.091.104.176.228.254.37.104.157.202.313.293.47.104.143.182.293.234.449.066.143.098.293.098.449a1.1 1.1 0 0 1-.078.488l.019.196c.066.117.079.28.04.488-.013.091-.02.189-.02.293 0 .091.013.195.039.312.234.183.443.274.625.274.208 0 .397-.046.566-.137a7.9 7.9 0 0 0 .508-.313 2.06 2.06 0 0 1 .313-.195.769.769 0 0 1 .312-.117c.235-.221.443-.417.625-.586.196-.17.397-.338.606-.508.39-.312.768-.65 1.133-1.015a4.06 4.06 0 0 0 .878-1.367.788.788 0 0 1 .411-.118c.143 0 .293.033.449.098.156.065.306.13.449.195a.938.938 0 0 0 .098.059.76.76 0 0 1 .097.039c0 .13.052.24.157.332.052.039.084.065.097.078a.23.23 0 0 0 .059.04c.195.103.319.207.371.312.091.3.254.527.488.683a.892.892 0 0 0 0 .371c.039.105.085.215.137.332l.039.117c.013.04.033.085.059.137l-.371-.039.058.371a1.43 1.43 0 0 1-.058.606 1.902 1.902 0 0 1-.196.527c.013.339.02.606.02.8.013.183.006.359-.02.528a2.529 2.529 0 0 1-.117.45 3.042 3.042 0 0 1-.176.468c.052.834-.045 1.595-.293 2.285a26.301 26.301 0 0 1-.742 1.914c-.026.065-.059.13-.098.196l-.078.195a1.74 1.74 0 0 0-.312.137 5.497 5.497 0 0 0-.293.136Zm13.672-10.644a.586.586 0 0 1 0 .215.37.37 0 0 1-.02.117v.137c0 .039.013.104.039.195-.273.443-.592.749-.957.918a5.16 5.16 0 0 1-1.152.352 66.42 66.42 0 0 0-1.289.214c-.43.078-.86.248-1.289.508a.587.587 0 0 0-.469 0c-.13.065-.326.085-.586.059a.737.737 0 0 1-.293.176 3.535 3.535 0 0 0-.351.097.722.722 0 0 1 .058.371c0 .117.02.215.059.293.455.04.957.033 1.504-.02a24.72 24.72 0 0 1 1.64-.097c.013.065.007.11-.019.137-.026.013-.033.045-.02.098.091.065.182.15.274.253l.273.274c.091.091.182.17.274.234a.629.629 0 0 0 .351.059c.052.104.085.221.098.351a.622.622 0 0 1-.039.371c-.209.144-.417.293-.625.45a5.64 5.64 0 0 1-.664.39 4.024 4.024 0 0 1-.723.293 2.833 2.833 0 0 1-.84.078h-.156c-.026 0-.065-.02-.117-.058-.105.065-.254.084-.45.058-.182-.026-.325-.006-.429.059a1.103 1.103 0 0 0-.528-.078 1.66 1.66 0 0 1-.527-.078 6.767 6.767 0 0 0-.566.879c-.17.312-.319.644-.45.996a5.94 5.94 0 0 0 1.094.078c.3-.013.58-.033.84-.059.26-.039.527-.071.801-.097.273-.04.618-.053 1.035-.04.26-.143.566-.234.918-.273.365-.052.697-.13.996-.234a.61.61 0 0 1 .273.215c.079.09.15.182.215.273.078.078.157.15.235.215a.373.373 0 0 0 .293.078.35.35 0 0 1 .097.195c.026.065.046.13.059.196a.661.661 0 0 0 .059.175c.039.04.097.052.175.04-.195.43-.423.761-.683.995a2.58 2.58 0 0 1-.86.508 6.1 6.1 0 0 1-1.093.274c-.391.065-.827.143-1.309.234a.435.435 0 0 1-.293-.02.864.864 0 0 0-.273-.038c-.3.065-.658.123-1.075.175a8.19 8.19 0 0 1-1.269.059 5.403 5.403 0 0 1-1.231-.176 1.949 1.949 0 0 1-.957-.508.722.722 0 0 1-.215-.312c-.026-.13-.11-.228-.253-.293a5.341 5.341 0 0 0-.079-.567 61.61 61.61 0 0 1-.117-.644 14.368 14.368 0 0 1-.097-.684c-.013-.221 0-.423.039-.605a1.29 1.29 0 0 1 .234-.527.574.574 0 0 0 .137-.508c.065-.013.104-.046.117-.098.013-.065.065-.091.156-.078.078-.234.163-.456.254-.664.091-.209.182-.41.274-.606.104-.195.201-.39.292-.586a6.53 6.53 0 0 0 .293-.683 1.776 1.776 0 0 1-.41-.547 3.914 3.914 0 0 1-.175-.605 9.637 9.637 0 0 1-.098-.625 4.018 4.018 0 0 0-.137-.665 1.61 1.61 0 0 1 .469-.468c.195-.13.404-.235.625-.313.221-.078.462-.143.723-.195.26-.052.533-.11.82-.176.521-.17.983-.3 1.387-.39.416-.092.82-.163 1.211-.215.403-.065.82-.124 1.25-.176.429-.052.918-.13 1.464-.235.118.118.228.176.332.176.052-.117.111-.15.176-.097.078.039.111 0 .098-.118.13.222.293.41.488.567.208.143.436.267.684.37Z"/>
  <path stroke="#1C223C" stroke-linecap="round" stroke-width="2" d="M8.722 12.364c-.826.448-1.265.377-2.058.088-.677-.246-1.262-.24-1.82-.673-.245-.191-.585-.234-.841-.433-.213-.166-.47-.434-.749-.43-.498.008-1.557-1.784-.726-.044.44.924 1.104 1.668 1.499 2.595.302.71.816 1.364 1.168 2.053.606 1.188.55 2.478.84 3.738"/>
  <path stroke="#1C223C" stroke-linecap="round" stroke-width="2" d="M5.077 12.635c1.198 1.45 2.322 3.033 3.645 4.368.961.97 2.148 1.597 3.238 2.358 1.596 1.114 3.244 2.362 4.965 3.277 1.623.864 3.25 1.725 4.853 2.6 1.362.744 2.786 1.082 4.303 1.317.773.12 1.56.532 2.318.745.526.148 1.044.05 1.579.155.852.168 1.901.631 2.757.606.366-.01.759.078 1.115-.017.497-.13 1.03.19 1.53.097.365-.067.68-.003 1.067-.075.365-.068.664-.182.996-.258"/>
</svg>
