<svg xmlns="http://www.w3.org/2000/svg" width="58" height="42" fill="none" viewBox="0 0 58 42">
  <path fill="#E87449" d="M43.137 16.736c-.098.05-.19.093-.279.132a.617.617 0 0 1-.278.059c-.38-.283-.581-.777-.6-1.48-.01-.703.141-1.596.454-2.68.048-.03.073-.088.073-.176l-.132-.147a.48.48 0 0 0-.117.015c-.03.01-.054.044-.073.103-.254.185-.533.38-.835.586-.303.195-.62.38-.953.556a6.3 6.3 0 0 1-.996.41 3.157 3.157 0 0 1-.981.161c-.82 0-1.436-.415-1.846-1.245l-.117-.22-.117.191a1.6 1.6 0 0 0-.132.249 4.298 4.298 0 0 0-.176.41 6.966 6.966 0 0 0-.16.484c-.04.156-.055.293-.045.41-.088.088-.18.19-.278.307-.098.117-.171.25-.22.396a.287.287 0 0 0 .03.22.33.33 0 0 1-.132.205 2.15 2.15 0 0 1-.132.146.683.683 0 0 0-.103.132.84.84 0 0 0-.044.146.742.742 0 0 1-.014.147.6.6 0 0 1-.03.19c-.166.342-.298.562-.395.66a.508.508 0 0 1-.396.16c-.078 0-.205-.014-.38-.043a2.103 2.103 0 0 1-.352-.557 4.784 4.784 0 0 1-.234-.776 4.66 4.66 0 0 1-.074-.82c.01-.284.059-.528.147-.733 0-.01.039-.107.117-.293.078-.186.176-.425.293-.718.127-.293.268-.615.425-.967.156-.36.312-.708.468-1.04.157-.341.303-.654.44-.937.146-.283.268-.498.366-.645.078-.117.147-.224.205-.322.069-.107.132-.21.19-.308a6.21 6.21 0 0 1 .499-.747c.166-.205.405-.366.717-.483.215.088.372.19.47.308l.029.16c.038.098.097.147.175.147.108.03.196.059.264.088.078.02.161.04.249.059.068.078.132.17.19.278.078.117.152.234.22.352.078.107.137.22.176.337a.8.8 0 0 1 .073.336.82.82 0 0 1-.059.367l.015.146c.049.088.059.21.03.366a1.55 1.55 0 0 0-.015.22c0 .068.01.147.03.235.175.136.331.204.468.204a.881.881 0 0 0 .425-.102 6.43 6.43 0 0 0 .38-.234 1.56 1.56 0 0 1 .235-.147.578.578 0 0 1 .234-.088l.469-.44c.147-.126.298-.253.454-.38.293-.234.576-.488.85-.762.273-.273.493-.615.659-1.025a.59.59 0 0 1 .308-.088c.107 0 .22.024.337.073.117.049.229.098.336.147a.72.72 0 0 0 .074.044c.029.01.053.02.073.029 0 .098.039.18.117.249.04.03.063.049.073.059.01.01.025.02.044.029.147.078.24.156.279.234a.91.91 0 0 0 .366.513.666.666 0 0 0 0 .278c.03.078.063.161.102.25l.03.087c.01.03.024.064.044.103l-.279-.03.044.279c.02.136.005.288-.044.454a1.405 1.405 0 0 1-.146.395c.01.254.014.454.014.6.01.138.005.27-.014.396-.02.118-.05.23-.088.337-.03.108-.073.225-.132.352a4.248 4.248 0 0 1-.22 1.714 20.41 20.41 0 0 1-.556 1.435.964.964 0 0 1-.074.147l-.058.146a1.3 1.3 0 0 0-.235.103 4.21 4.21 0 0 0-.22.102ZM53.39 8.753c.01.068.01.122 0 .161 0 .03-.005.059-.015.088v.102c0 .03.01.079.03.147-.206.332-.445.562-.718.688a3.886 3.886 0 0 1-.865.264 57.26 57.26 0 0 0-.967.161 2.85 2.85 0 0 0-.966.381.44.44 0 0 0-.352 0c-.098.049-.244.064-.44.044a.551.551 0 0 1-.22.132c-.087.02-.175.044-.263.073a.53.53 0 0 1 .044.279c0 .087.015.16.044.22.342.028.718.024 1.128-.016.42-.039.83-.063 1.23-.073.01.05.005.083-.014.103-.02.01-.024.034-.015.073.069.049.137.112.205.19l.205.206c.069.068.137.126.206.175a.473.473 0 0 0 .263.044c.04.078.064.166.073.264.02.088.01.18-.029.278-.156.108-.312.22-.469.337a4.165 4.165 0 0 1-.498.293 2.994 2.994 0 0 1-.542.22 2.128 2.128 0 0 1-.63.059H49.7c-.02 0-.049-.015-.088-.044-.078.048-.19.063-.337.043-.136-.019-.244-.004-.322.045a.825.825 0 0 0-.395-.06 1.25 1.25 0 0 1-.396-.058 5.078 5.078 0 0 0-.425.66 5.78 5.78 0 0 0-.337.747c.332.048.606.068.82.058.225-.01.435-.024.63-.044.196-.03.396-.053.601-.073.205-.03.464-.04.777-.03.195-.107.424-.175.688-.205a3.99 3.99 0 0 0 .747-.175c.078.03.147.083.205.16.059.07.113.138.161.206.059.059.117.112.176.161a.28.28 0 0 0 .22.059.264.264 0 0 1 .073.146.82.82 0 0 1 .044.147c.01.049.024.092.044.132.03.029.073.039.132.029-.147.322-.318.571-.513.747a1.92 1.92 0 0 1-.644.38 4.574 4.574 0 0 1-.82.206c-.294.049-.62.107-.982.176a.326.326 0 0 1-.22-.015.65.65 0 0 0-.205-.03 9.255 9.255 0 0 1-.806.133c-.312.039-.63.053-.952.043a4.044 4.044 0 0 1-.923-.131 1.457 1.457 0 0 1-.717-.381.534.534 0 0 1-.162-.235c-.02-.097-.083-.17-.19-.22a3.997 3.997 0 0 0-.059-.424l-.087-.484a10.36 10.36 0 0 1-.074-.512c-.01-.166 0-.318.03-.454a.966.966 0 0 1 .175-.396.43.43 0 0 0 .103-.38c.049-.01.078-.035.088-.074.01-.049.049-.068.117-.059.059-.175.122-.341.19-.498.069-.156.137-.307.206-.454.078-.146.15-.293.22-.44.077-.155.15-.326.219-.512a1.33 1.33 0 0 1-.308-.41 2.936 2.936 0 0 1-.131-.454 7.833 7.833 0 0 1-.074-.469 3.008 3.008 0 0 0-.102-.498c.097-.146.215-.264.351-.351.147-.098.303-.176.469-.235.166-.058.347-.107.542-.146.195-.04.4-.083.615-.132a11.9 11.9 0 0 1 1.04-.293c.313-.069.615-.122.909-.161.302-.05.615-.093.937-.132.322-.04.688-.098 1.099-.176.087.088.17.132.249.132.039-.088.083-.112.131-.073.06.029.084 0 .074-.088.097.166.22.307.366.425.156.107.327.2.513.278Zm3.691-1.831c0 .088-.015.195-.044.322l-.058.381c-.02.127-.025.244-.015.352.01.097.054.16.132.19-.176.518-.298.952-.367 1.304a70.46 70.46 0 0 0-.16 1.01c-.04.313-.093.645-.162.996-.068.352-.19.782-.366 1.29-.107.312-.24.532-.395.659a.816.816 0 0 1-.499.176c-.175 0-.356-.05-.542-.147a3.812 3.812 0 0 1-.512-.322 2.986 2.986 0 0 1-.015-.674 33.4 33.4 0 0 1 .103-.85c.039-.293.078-.57.117-.835.039-.273.068-.502.088-.688.097-.107.166-.195.205-.264a.583.583 0 0 0 .073-.22c.02-.078.034-.175.044-.292.01-.118.034-.284.073-.498.02-.108.01-.2-.03-.279a.44.44 0 0 1-.014-.249.191.191 0 0 1 .088-.088.134.134 0 0 0 .088-.102.544.544 0 0 0 .03-.293.427.427 0 0 1 .043-.279c.05-.078.108-.2.176-.366a1.04 1.04 0 0 0 .088-.542 1.88 1.88 0 0 0 .249-.234c.078-.088.156-.166.234-.234a1.28 1.28 0 0 1 .279-.19.914.914 0 0 1 .38-.074c.079.107.137.21.176.307.04.098.074.19.103.279.039.088.088.17.146.249a.729.729 0 0 0 .264.205Zm-1.45 8.335c.02.078.034.151.044.22l.03.22a5.78 5.78 0 0 1-.191.556l-.059.132a.112.112 0 0 0-.015.044c0 .01.005.024.015.044.01.01.015.049.015.117l-.073.176a.553.553 0 0 1-.176.16 1.185 1.185 0 0 1-.19.103.323.323 0 0 1-.103.044.484.484 0 0 0-.074.059l-.043.176-.206.029a1.76 1.76 0 0 1-.424.058h-.162c-.117-.107-.21-.19-.278-.248a1.413 1.413 0 0 0-.234-.162 1.403 1.403 0 0 1-.19-.483.65.65 0 0 0-.074-.25l-.205-.204.176-.132-.176-.278a5.1 5.1 0 0 1 .264-.19.963.963 0 0 0 .146-.118c.049-.049.098-.107.147-.176.049-.068.127-.18.234-.337l.132-.19.176.102a.93.93 0 0 0 .263.088c.137.02.254.04.352.059.156.049.307.088.454.117a.66.66 0 0 1 .366.147l.059.117Z"/>
  <path stroke="#E87449" stroke-linecap="round" stroke-width="2" d="M8.06 29.238c-.363.867-.75 1.086-1.55 1.358-.682.231-1.135.603-1.84.613-.311.004-.603.184-.928.189-.27.003-.638-.044-.852.133-.384.318-2.332-.417-.595.42.922.444 1.906.61 2.793 1.086.68.364 1.49.553 2.196.87 1.217.548 1.98 1.59 2.995 2.39"/>
  <path stroke="#E87449" stroke-linecap="round" stroke-width="2" d="M5.387 31.73c1.841.382 3.709.914 5.576 1.127 1.356.155 2.675-.098 4.002-.187 1.942-.13 4.008-.187 5.923-.55 1.806-.343 3.614-.689 5.413-1.01 1.527-.272 2.85-.899 4.18-1.665.678-.39 1.549-.561 2.274-.87.503-.213.845-.614 1.329-.866.77-.403 1.878-.698 2.53-1.253.278-.238.64-.415.859-.71.305-.414.921-.497 1.254-.883.242-.28.528-.427.785-.726.242-.281.404-.558.615-.825"/>
</svg>
