<svg xmlns="http://www.w3.org/2000/svg" width="174" height="35" fill="none" viewBox="0 0 174 35">
  <path fill="#E87449" d="M9.234 10.408c.069-.205.176-.38.323-.527a2.51 2.51 0 0 1 .498-.366c.185-.108.376-.196.571-.264.195-.068.38-.127.557-.176.39-.166.805-.322 1.245-.469.449-.156.903-.293 1.362-.41.469-.117.947-.19 1.436-.22a4.3 4.3 0 0 1 1.538.176c.029.098.073.19.131.279l.176.263c.069.088.127.176.176.264a.588.588 0 0 1 .088.249c.098.088.176.186.234.293.059.098.069.23.03.396a5.689 5.689 0 0 1-.293.22 2.085 2.085 0 0 1-.293.16 3.475 3.475 0 0 0-1.099-.088c-.371.03-.703.054-.996.074a.438.438 0 0 0-.322-.132c-.117 0-.244.02-.381.058a20.87 20.87 0 0 1-.396.118.792.792 0 0 1-.366.029.84.84 0 0 1-.366.161c-.137.02-.288.04-.454.059-.01.049 0 .083.03.102.028.01.033.04.014.088a.486.486 0 0 0 .22.147l.293.088c.107.029.2.068.278.117a.317.317 0 0 1 .16.205c.147 0 .274.034.382.102a.92.92 0 0 1 .41.572.866.866 0 0 1 .059.293c.029.078.063.112.102.102.04-.01.083.01.132.059.03.127.102.258.22.395.117.127.21.269.278.425.02.244.034.464.044.66a1.34 1.34 0 0 1-.103.57 3.133 3.133 0 0 1-.615.967 4.742 4.742 0 0 1-.879.762 6.26 6.26 0 0 1-1.04.557c-.37.156-.732.288-1.084.395a.24.24 0 0 0-.117 0c-.04.01-.049-.015-.03-.073a.562.562 0 0 1-.263.132.952.952 0 0 1-.293.014 4.42 4.42 0 0 1-.337-.014 1.068 1.068 0 0 0-.307.014 3.677 3.677 0 0 1-.19-.205.658.658 0 0 1-.118-.234c-.049 0-.073-.025-.073-.073.01-.05-.005-.074-.044-.074.058-.097.083-.15.073-.16 0-.02-.015-.035-.044-.045l-.059-.029c-.02-.02-.024-.044-.014-.073a.473.473 0 0 0 .044-.264l-.03-.322c-.01-.107-.004-.21.015-.308.03-.097.103-.175.22-.234.332.039.644.03.937-.03a4.48 4.48 0 0 0 .85-.278c.264-.117.513-.244.747-.38.244-.137.483-.26.718-.367a.669.669 0 0 1 .117-.22c.059-.058.117-.112.176-.16.058-.05.112-.103.16-.162a.51.51 0 0 0 .103-.22c.01-.068-.01-.107-.058-.117-.04-.02-.059-.058-.059-.117l-.16-.044a2.838 2.838 0 0 0-.63-.264 3.985 3.985 0 0 1-.601-.248.39.39 0 0 1-.308.043 3.04 3.04 0 0 0-.352-.087c-.332-.02-.654-.054-.966-.103a3.501 3.501 0 0 1-.88-.264.572.572 0 0 0-.073-.132c-.029-.039-.083-.048-.16-.029a4.304 4.304 0 0 0-.176-.22 2.182 2.182 0 0 1-.162-.249c.02-.117.035-.214.044-.292a.316.316 0 0 0-.088-.25c.04-.127.069-.23.088-.307a.804.804 0 0 0 0-.308Zm12.818 6.621c-.157.01-.352.005-.586-.014a1.247 1.247 0 0 0-.63.102 9.98 9.98 0 0 1-1.582-.19c-.537-.108-1.03-.24-1.48-.396a4.128 4.128 0 0 0-.293-.293.805.805 0 0 0-.395-.205 2.236 2.236 0 0 1-.571-.674 4.461 4.461 0 0 1-.352-.864 4.963 4.963 0 0 1-.176-.923c-.029-.322-.039-.63-.029-.923.147-.439.352-.815.615-1.127.274-.323.552-.64.835-.953a.98.98 0 0 0 .278-.175 1.61 1.61 0 0 1 .206-.176c.078-.059.151-.113.22-.161.078-.059.146-.127.204-.205.206-.05.381-.118.528-.206.156-.097.307-.195.454-.292.146-.108.298-.206.454-.293.156-.088.337-.157.542-.206a.825.825 0 0 1 .278-.205c.108-.058.215-.112.323-.16.117-.06.224-.118.322-.177a.641.641 0 0 0 .249-.234c.049.078.117.108.205.088a7.1 7.1 0 0 0 .249-.088c.049-.01.088 0 .117.03.04.029.073.058.103.087a.27.27 0 0 0 .073.059c.03 0 .054-.025.073-.073.049 0 .064.024.044.073a1.56 1.56 0 0 1-.044.102c.078-.01.142.01.19.059.06.04.147.063.264.073.04.05.05.088.03.117-.02.02-.03.059-.03.118.293.088.479.23.557.424a.804.804 0 0 1 .014.586 1.46 1.46 0 0 1-.366.572 1.323 1.323 0 0 1-.571.351 15.35 15.35 0 0 0-1.333.425 2.43 2.43 0 0 0-1.01.66 2.465 2.465 0 0 0-.63.277 3.666 3.666 0 0 0-.513.381 6.394 6.394 0 0 0-.454.44 9.291 9.291 0 0 1-.44.44.468.468 0 0 1-.073.322 4.274 4.274 0 0 0-.147.22c.02.146.054.278.103.395.049.107.103.215.161.322a9.19 9.19 0 0 0 2.05.366c.733.05 1.466.078 2.198.088.069.098.147.19.234.278.098.079.186.166.264.264.078.088.142.19.19.308a.696.696 0 0 1 .03.41 3.665 3.665 0 0 1-.454.41c-.166.117-.332.24-.498.366Zm3.97-1.552c-.108.39-.206.688-.293.893-.079.195-.2.4-.367.615-.127-.02-.214-.005-.263.044a1.05 1.05 0 0 1-.162.132c-.087.02-.15.02-.19 0a.39.39 0 0 1-.102-.073 3.014 3.014 0 0 0-.118-.073.454.454 0 0 0-.19-.03 1.445 1.445 0 0 0-.073-.22c-.02-.068-.083-.092-.19-.073a.448.448 0 0 0 .014-.19.519.519 0 0 0-.044-.146 2.73 2.73 0 0 0-.03-.132.38.38 0 0 1 .015-.176c-.049 0-.088-.034-.117-.103a2.031 2.031 0 0 0-.102-.205c.029-.175.058-.342.088-.498.029-.156.063-.303.102-.44a3.11 3.11 0 0 0 .117-.41.719.719 0 0 0-.044-.424c.04.03.069.024.088-.015a.766.766 0 0 0 .044-.176 1.73 1.73 0 0 0 .015-.22 1.01 1.01 0 0 0-.015-.19c.098-.254.176-.513.235-.776.068-.274.126-.542.175-.806.059-.264.117-.522.176-.776.059-.254.137-.489.234-.703a.65.65 0 0 1 .352.044c.137.039.22.092.249.16.254-.195.479-.429.674-.702.195-.284.395-.557.6-.82.206-.264.43-.499.674-.704.254-.205.571-.327.952-.366.196.146.41.298.645.454.244.147.444.342.6.586.079.04.142.083.19.132l.206.132v.175c.117.108.21.235.278.381.078.137.147.288.205.454.059.157.118.318.176.484.059.156.127.307.205.454a.36.36 0 0 0-.029.132c0 .03.005.063.015.102a.57.57 0 0 1 .044.117c.01.04.01.093 0 .162-.03.43-.171.776-.425 1.04a3.078 3.078 0 0 1-.894.659 7.693 7.693 0 0 1-1.128.425c-.4.117-.762.244-1.084.38 0 .04.015.06.044.06.04 0 .054.024.044.072.235.147.42.264.557.352.136.088.264.161.38.22.128.058.26.112.396.16.147.04.347.089.6.147.255.059.45.108.587.147.146.029.278.058.395.088l.352.058.527.044c.088.088.161.195.22.322.068.118.112.24.132.367.02.117.024.234.014.351a.457.457 0 0 1-.102.264c.01.03.03.044.058.044a.237.237 0 0 1 .118 0 .523.523 0 0 0-.147.146l-.117.176a.642.642 0 0 1-.132.147.332.332 0 0 1-.205.087c-.303.118-.684.122-1.143.015-.459-.098-1.04-.283-1.743-.556a24.72 24.72 0 0 1-.864-.352 9.616 9.616 0 0 1-.571-.308 5.207 5.207 0 0 1-.44-.337 41.412 41.412 0 0 0-.468-.424Zm2.094-5.025c-.107.156-.23.298-.366.425-.127.127-.254.259-.38.396a2.553 2.553 0 0 0-.323.439 1.57 1.57 0 0 0-.205.557c.342-.04.698-.132 1.07-.279.37-.156.722-.303 1.054-.44-.04-.302-.147-.546-.322-.732a1.207 1.207 0 0 0-.528-.366Zm12.202 2.153c-.01.118 0 .23.03.337.029.108.063.215.102.323.049.097.093.2.132.307.04.108.068.215.088.323.02.136.02.288 0 .454-.02.156-.054.312-.103.468a1.963 1.963 0 0 1-.19.41.793.793 0 0 1-.278.264 1.44 1.44 0 0 1-.498.41 2.863 2.863 0 0 0-.542.352c-.108.068-.23.117-.367.146-.127.03-.258.059-.395.088a6.833 6.833 0 0 1-.381.19c-.146.06-.298.118-.454.177a4.116 4.116 0 0 1-.469.117c-.156.02-.293.024-.41.014a3.578 3.578 0 0 1-.864.205c-.274.04-.596.02-.967-.058a2.515 2.515 0 0 1-.982-.044 2.445 2.445 0 0 1-.79-.366 3.263 3.263 0 0 1-.601-.616 4.108 4.108 0 0 1-.41-.761c-.078-.557-.059-1.06.058-1.51.117-.458.283-.878.498-1.259.225-.39.479-.747.762-1.07.283-.331.557-.654.82-.966.059.02.103.02.132 0a.51.51 0 0 0 .103-.102c.03-.05.058-.093.088-.132a.256.256 0 0 1 .132-.074.677.677 0 0 1 .293-.322.852.852 0 0 0 .322-.322.647.647 0 0 0 .22-.088 1.08 1.08 0 0 0 .16-.132c.06-.049.118-.093.176-.132a.508.508 0 0 1 .206-.102v-.161a.999.999 0 0 0 .38-.264l.308-.38c.088-.01.156-.016.205-.016a1.5 1.5 0 0 0 .25-.029c.077-.137.145-.24.204-.307.069-.069.166-.142.293-.22.117.058.244.097.381.117a.65.65 0 0 1 .38.19c.01.098.04.176.089.235.048.049.102.097.16.146.06.04.113.083.162.132a.359.359 0 0 1 .117.205c.04.01.064.005.073-.014.02-.02.05-.025.088-.015.03.137.064.23.103.278.039.04.078.122.117.25-.049.097-.088.2-.117.307a.305.305 0 0 1-.176.22c-.01.068.01.107.059.117.048 0 .078.024.087.073.01.088-.004.151-.043.19.234.381.444.787.63 1.216.185.42.395.82.63 1.201Zm-1.83 1.392a.845.845 0 0 1 .146-.264c.068-.068.107-.17.117-.307a.709.709 0 0 1-.088-.176 1.21 1.21 0 0 1-.015-.22 5.919 5.919 0 0 1-.556-.966 7.211 7.211 0 0 0-.527-.982.368.368 0 0 1-.103.117c-.049.04-.103.03-.161-.03a.314.314 0 0 1-.103.177.307.307 0 0 1-.16.044 1.725 1.725 0 0 1-.191-.044.91.91 0 0 1-.162-.103c-.283.225-.566.444-.85.66a4.243 4.243 0 0 0-.76.746.258.258 0 0 1-.074.03c-.01-.01-.04-.005-.088.014a2.409 2.409 0 0 1-.293.513 17.85 17.85 0 0 0-.322.454c-.108.156-.2.322-.279.498a1.68 1.68 0 0 0-.131.615c.166.137.361.22.586.25.224.029.454.034.688.014.244-.02.479-.049.703-.088.235-.049.45-.073.645-.073a4.42 4.42 0 0 0 1.055-.38c.292-.167.6-.333.922-.499Zm6.591 2.842c-.273.088-.571.176-.894.264a3.66 3.66 0 0 1-.966.131c-.489 0-.874-.122-1.157-.366a.792.792 0 0 0-.132-.22l-.088-.117a.784.784 0 0 1-.044-.19 1.611 1.611 0 0 1-.279-.469 2.935 2.935 0 0 1-.146-.557 3.914 3.914 0 0 1-.015-.585c.02-.196.054-.381.103-.557a.26.26 0 0 0 .03-.117l.029-.132c.039-.156.078-.308.117-.454.048-.147.112-.274.19-.381a.38.38 0 0 1 0-.293c.04-.107.083-.205.132-.293.137-.371.249-.684.337-.938.098-.263.195-.522.293-.776.166-.44.322-.874.469-1.304.146-.43.278-.893.395-1.391.078-.05.137-.083.176-.103.059-.02.107-.034.146-.044.176.088.381.176.616.264.234.078.43.117.586.117a.524.524 0 0 1 .146.117l.059.059c.107.127.2.259.278.395.078.127.102.298.073.513-.058.088-.102.132-.132.132a3.336 3.336 0 0 1-.16.498 7.096 7.096 0 0 1-.162.41 8.505 8.505 0 0 0-.19.44 2.848 2.848 0 0 0-.147.542.766.766 0 0 0-.088.131 1.05 1.05 0 0 1-.044.132c-.02.05-.044.103-.073.161a.324.324 0 0 1-.102.132 2.21 2.21 0 0 1-.147.615 9.494 9.494 0 0 1-.19.47c-.117.282-.225.566-.323.849a3.992 3.992 0 0 0-.16.967.36.36 0 0 1 .131-.03h.132c.088 0 .19.015.307.044.293-.156.61-.249.953-.278.351-.03.698-.049 1.04-.059h.41c.137 0 .264-.01.38-.029l.162.088h.117c.068 0 .127.005.176.015.117.107.23.185.337.234.107.049.22.093.337.132.107.039.21.083.307.132.108.039.21.097.308.175l.102.63c.069.088.098.147.088.176 0 .078-.02.137-.058.176l.029.161a.923.923 0 0 0-.308.103 2.126 2.126 0 0 0-.146.131 1.52 1.52 0 0 1-.176.015h-.088c-.136 0-.303.024-.498.073a2.576 2.576 0 0 0-.82-.132c-.108 0-.22.005-.337.015l-.352.03a4.08 4.08 0 0 1-.366.043 4.3 4.3 0 0 1-.366.015l-.337.088Zm7.998 0a20.78 20.78 0 0 1-.893.264 3.66 3.66 0 0 1-.967.131c-.489 0-.874-.122-1.157-.366a.795.795 0 0 0-.132-.22l-.088-.117a.789.789 0 0 1-.044-.19 1.609 1.609 0 0 1-.278-.469 2.928 2.928 0 0 1-.147-.557 3.928 3.928 0 0 1-.015-.585c.02-.196.054-.381.103-.557a.26.26 0 0 0 .03-.117l.029-.132c.039-.156.078-.308.117-.454.049-.147.112-.274.19-.381a.38.38 0 0 1 0-.293c.04-.107.083-.205.132-.293.137-.371.25-.684.337-.938.098-.263.195-.522.293-.776.166-.44.322-.874.469-1.304.146-.43.278-.893.395-1.391.078-.05.137-.083.176-.103.058-.02.107-.034.146-.044.176.088.381.176.616.264.234.078.43.117.586.117a.525.525 0 0 1 .146.117l.059.059c.107.127.2.259.278.395.078.127.102.298.073.513-.058.088-.102.132-.132.132a3.325 3.325 0 0 1-.16.498 7.098 7.098 0 0 1-.162.41 8.593 8.593 0 0 0-.19.44 2.855 2.855 0 0 0-.147.542.777.777 0 0 0-.088.131 1.792 1.792 0 0 1-.117.293.325.325 0 0 1-.102.132c-.03.254-.078.46-.147.615a9.397 9.397 0 0 1-.19.47c-.117.282-.225.566-.323.849a3.992 3.992 0 0 0-.16.967.36.36 0 0 1 .131-.03h.132c.088 0 .19.015.308.044.293-.156.61-.249.952-.278.351-.03.698-.049 1.04-.059h.41c.137 0 .264-.01.38-.029l.162.088h.117c.069 0 .127.005.176.015.117.107.23.185.337.234.107.049.22.093.337.132.107.039.21.083.307.132.108.039.21.097.308.175l.102.63c.069.088.098.147.088.176 0 .078-.02.137-.058.176l.03.161a.922.922 0 0 0-.309.103 1.78 1.78 0 0 0-.146.131 1.52 1.52 0 0 1-.176.015h-.088a2.11 2.11 0 0 0-.498.073 2.577 2.577 0 0 0-.82-.132c-.108 0-.22.005-.337.015l-.351.03c-.118.019-.24.034-.367.043a4.3 4.3 0 0 1-.366.015l-.337.088Zm19.82-.103a6.78 6.78 0 0 1-.279.132.617.617 0 0 1-.278.059c-.381-.283-.581-.777-.6-1.48-.01-.703.14-1.596.453-2.68.05-.03.074-.088.074-.176l-.132-.147a.48.48 0 0 0-.117.015c-.03.01-.054.044-.074.103-.254.185-.532.38-.835.586-.302.195-.62.38-.952.556a6.296 6.296 0 0 1-.996.41 3.157 3.157 0 0 1-.981.161c-.82 0-1.436-.415-1.846-1.245l-.117-.22-.117.191c-.03.039-.074.122-.132.249a4.298 4.298 0 0 0-.176.41 6.966 6.966 0 0 0-.161.484c-.04.156-.054.293-.044.41-.088.088-.18.19-.278.307a1.21 1.21 0 0 0-.22.396.287.287 0 0 0 .03.22.33.33 0 0 1-.133.205 1.76 1.76 0 0 1-.132.146.675.675 0 0 0-.102.132.832.832 0 0 0-.044.146.75.75 0 0 1-.015.147.6.6 0 0 1-.029.19c-.166.342-.298.562-.395.66a.508.508 0 0 1-.396.16c-.078 0-.205-.014-.38-.043a2.1 2.1 0 0 1-.352-.557 4.794 4.794 0 0 1-.235-.776 4.66 4.66 0 0 1-.073-.82c.01-.284.059-.528.147-.733 0-.01.039-.107.117-.293.078-.186.175-.425.293-.718.127-.293.268-.615.425-.967.156-.36.312-.708.468-1.04.156-.341.303-.654.44-.937.146-.283.268-.498.366-.645.078-.117.146-.224.205-.322.068-.107.132-.21.19-.308.176-.302.342-.551.498-.747.166-.205.406-.366.718-.483.215.088.371.19.469.308l.03.16c.038.098.097.147.175.147.107.03.195.059.264.088.078.02.16.04.249.059.068.078.132.17.19.278.078.117.151.234.22.352.078.107.137.22.176.337a.8.8 0 0 1 .073.336.82.82 0 0 1-.059.367l.015.146c.049.088.059.21.03.366a1.137 1.137 0 0 0 .014.455c.176.136.332.204.469.204a.881.881 0 0 0 .424-.102c.137-.078.264-.156.381-.234.078-.059.157-.108.235-.147a.577.577 0 0 1 .234-.088l.469-.44c.146-.126.298-.253.454-.38.293-.234.576-.488.85-.762.273-.273.493-.615.659-1.025a.589.589 0 0 1 .307-.088c.108 0 .22.024.337.073.117.049.23.098.337.147a.72.72 0 0 0 .073.044c.03.01.054.02.074.029 0 .098.039.18.117.249.039.03.063.049.073.059.01.01.025.02.044.029.147.078.24.156.278.234.069.225.19.396.367.513a.669.669 0 0 0 0 .278c.029.078.063.161.102.25l.03.087a.8.8 0 0 0 .043.103l-.278-.03.044.279c.02.136.005.288-.044.454-.04.166-.088.298-.147.395.01.254.015.454.015.6.01.138.005.27-.014.396-.02.118-.05.23-.088.337-.03.108-.074.225-.132.352a4.248 4.248 0 0 1-.22 1.714c-.176.507-.361.986-.557 1.435a.957.957 0 0 1-.073.147l-.058.146a1.3 1.3 0 0 0-.235.103 4.21 4.21 0 0 0-.22.102Zm6.767-3.574a.79.79 0 0 0-.176.22 5.66 5.66 0 0 0-.146.249c-.049.107-.103.21-.161.307a1.129 1.129 0 0 1-.22.264 2.127 2.127 0 0 1-.147.352c-.048.078-.126.17-.234.278-.098.39-.327.816-.688 1.274a.702.702 0 0 1-.088.264c-.04.078-.083.156-.132.235a.946.946 0 0 0-.059.102.724.724 0 0 0-.044.073l-.029.147a1.15 1.15 0 0 1-.161.205l-.161.161a.863.863 0 0 1-.103.117l-.22.088c-.712-.098-1.147-.479-1.303-1.143l.014-.146a.833.833 0 0 0 .044-.146l.059-.176a6.63 6.63 0 0 1 .132-.41 1.16 1.16 0 0 1 .249-.367c.02-.068.063-.175.132-.322.068-.156.185-.386.351-.688l.323-.557c.078-.137.141-.244.19-.322a2.088 2.088 0 0 0-.352-.425 11.567 11.567 0 0 1-.337-.703 6.297 6.297 0 0 1-.205-.6 2.337 2.337 0 0 0-.044-.323 8.893 8.893 0 0 1-.058-.278 3.803 3.803 0 0 1-.073-.323c-.02-.107-.03-.22-.03-.337a.468.468 0 0 1-.088-.205l.03-.146a.462.462 0 0 0 .014-.264 4.53 4.53 0 0 0-.073-.351 6.947 6.947 0 0 0-.073-.323 1.415 1.415 0 0 1-.015-.351.877.877 0 0 1 .088-.322.76.76 0 0 1 .278-.279l.25-.014c.087.048.17.097.249.146.087.04.17.083.248.132.108.049.21.098.308.146.098.05.2.113.308.19l.102.206.19.161v.161c.01.04.015.093.015.161 0 .127.02.205.059.235l.059.175c0 .137.014.269.043.396l.088.337c.03.107.059.22.088.337.03.117.034.244.015.38a.56.56 0 0 0 .146-.102c.02-.02.04-.034.059-.044a.21.21 0 0 0 .059-.044l.864-1.172-.03-.146.308-.293.22-.22a.992.992 0 0 0 .19-.22l.161-.117a1.99 1.99 0 0 1 1.334-.908l.205-.03.058.191c.04.108.117.205.234.293.128.088.26.171.396.25l.132.087c.049.098.073.17.073.22a.548.548 0 0 1-.014.132l.058.146c-.078.234-.176.405-.293.513a4.376 4.376 0 0 1-.322.293l-.25.22a.59.59 0 0 0-.16.234l-.103.117a.802.802 0 0 0-.395.469l-.044.176h-.176c-.01 0-.034.02-.073.058-.03.03-.079.112-.147.25a1.7 1.7 0 0 1-.146.19l-.074.073a.57.57 0 0 1-.043.117c-.01.03-.025.068-.044.117-.127.127-.206.225-.235.293l-.102.205-.118.235a.736.736 0 0 1-.16.22l-.074.22Zm12.393-5.244c.41.049.776.132 1.098.249.323.117.596.273.82.469.157.244.303.508.44.79.146.284.254.582.322.894.078.303.113.615.103.938 0 .322-.069.65-.205.981-.283.352-.63.64-1.04.864-.4.215-.835.391-1.304.528a16.05 16.05 0 0 1-1.465.351c-.498.098-.986.196-1.465.293.01.225.01.464 0 .718 0 .244-.024.493-.073.747a3.692 3.692 0 0 1-.19.718c-.088.234-.205.45-.352.645-.166 0-.337.02-.513.058a8.112 8.112 0 0 1-.468.117 3.222 3.222 0 0 1-.19-.117.544.544 0 0 0-.22-.059.371.371 0 0 0-.074-.292l-.205-.323a1.247 1.247 0 0 1-.146-.307c-.02-.098.029-.19.146-.279a.357.357 0 0 1-.102-.263c.068-.117.127-.279.175-.484.059-.205.103-.405.132-.6.04-.205.05-.39.03-.557-.02-.166-.118-.288-.293-.366.01-.02.029-.03.058-.03.03 0 .059-.004.088-.014a.383.383 0 0 1-.146-.25.535.535 0 0 0-.103-.277c.02-.05.034-.093.044-.132.01-.04.044-.054.102-.044a1.421 1.421 0 0 1 0-.498 2.14 2.14 0 0 1 .162-.44c.068-.146.151-.288.249-.425.097-.136.19-.273.278-.41.068-.01.107 0 .117.03.02.029.054.024.103-.015a.84.84 0 0 0 .263-.308.877.877 0 0 0 .074-.366c.068-.205.151-.41.249-.615.097-.215.205-.41.322-.586.117-.176.244-.332.38-.469.147-.136.299-.239.455-.307a1.87 1.87 0 0 1 .44-.264c.175-.088.366-.151.57-.19.206-.05.41-.074.616-.074.215-.01.41.01.586.059.049.02.073.01.073-.03.01-.038.03-.058.059-.058Zm-.6 3.5c.243-.106.502-.19.775-.248.284-.068.518-.19.704-.366a1.471 1.471 0 0 0-.513-.279 2.53 2.53 0 0 0-1.538-.088 1.496 1.496 0 0 0-.689.352 16.1 16.1 0 0 1-.146.425c-.04.098-.093.22-.161.366.02.049.049.088.088.117.048.02.083.054.102.103.225-.117.45-.18.674-.19a2.1 2.1 0 0 0 .703-.191Zm5.302 4.059a7.46 7.46 0 0 1-.293.893c-.078.195-.2.4-.366.615-.127-.02-.215-.005-.264.044a1.05 1.05 0 0 1-.161.132c-.088.02-.152.02-.19 0a.39.39 0 0 1-.103-.073 3.014 3.014 0 0 0-.117-.073.454.454 0 0 0-.19-.03 1.445 1.445 0 0 0-.074-.22c-.02-.068-.083-.092-.19-.073a.448.448 0 0 0 .014-.19.519.519 0 0 0-.044-.146 2.864 2.864 0 0 0-.029-.132.378.378 0 0 1 .015-.176c-.05 0-.088-.034-.118-.103a2.031 2.031 0 0 0-.102-.205c.03-.175.059-.342.088-.498.03-.156.063-.303.102-.44.05-.136.088-.273.118-.41a.719.719 0 0 0-.044-.424c.039.03.068.024.087-.015a.766.766 0 0 0 .044-.176 1.73 1.73 0 0 0 .015-.22 1.01 1.01 0 0 0-.015-.19c.098-.254.176-.513.235-.776.068-.274.127-.542.175-.806l.176-.776c.059-.254.137-.489.235-.703a.65.65 0 0 1 .351.044c.137.039.22.092.25.16.253-.195.478-.429.673-.702.195-.284.396-.557.6-.82.206-.264.43-.499.674-.704.254-.205.572-.327.953-.366.195.146.41.298.644.454.244.147.445.342.601.586.078.04.141.083.19.132.059.039.127.083.205.132v.175c.117.108.21.235.279.381.078.137.146.288.205.454.058.157.117.318.175.484.059.156.127.307.206.454a.353.353 0 0 0-.03.132c0 .03.005.063.015.102.019.04.034.078.044.117.01.04.01.093 0 .162-.029.43-.171.776-.425 1.04a3.073 3.073 0 0 1-.894.659 7.656 7.656 0 0 1-1.127.425c-.4.117-.762.244-1.084.38 0 .04.014.06.043.06.04 0 .054.024.044.072.235.147.42.264.557.352.137.088.264.161.381.22.127.058.259.112.395.16.147.04.347.089.601.147.254.059.449.108.586.147.146.029.278.058.396.088l.351.058.527.044c.088.088.162.195.22.322.069.118.112.24.132.367.02.117.024.234.015.351a.457.457 0 0 1-.103.264c.01.03.029.044.059.044a.236.236 0 0 1 .117 0 .52.52 0 0 0-.147.146l-.117.176a.636.636 0 0 1-.132.147.33.33 0 0 1-.205.087c-.302.118-.683.122-1.142.015-.459-.098-1.04-.283-1.743-.556a24.72 24.72 0 0 1-.865-.352 9.616 9.616 0 0 1-.571-.308 5.207 5.207 0 0 1-.44-.337 41.412 41.412 0 0 0-.468-.424Zm2.094-5.025a2.525 2.525 0 0 1-.366.425 14.79 14.79 0 0 0-.38.396 2.553 2.553 0 0 0-.323.439 1.57 1.57 0 0 0-.205.557c.342-.04.698-.132 1.07-.279.37-.156.722-.303 1.054-.44-.039-.302-.146-.546-.322-.732a1.207 1.207 0 0 0-.528-.366Zm12.203 2.153c-.01.118 0 .23.029.337.029.108.063.215.103.323.048.097.092.2.131.307.039.108.069.215.088.323.02.136.02.288 0 .454a2.623 2.623 0 0 1-.102.468 1.98 1.98 0 0 1-.191.41.794.794 0 0 1-.278.264 1.446 1.446 0 0 1-.498.41 2.872 2.872 0 0 0-.542.352c-.108.068-.23.117-.366.146-.127.03-.259.059-.396.088a6.539 6.539 0 0 1-.381.19c-.146.06-.298.118-.454.177a4.069 4.069 0 0 1-.469.117c-.156.02-.292.024-.41.014a3.58 3.58 0 0 1-.864.205c-.273.04-.596.02-.967-.058a2.513 2.513 0 0 1-.981-.044 2.441 2.441 0 0 1-.791-.366 3.259 3.259 0 0 1-.601-.616 4.084 4.084 0 0 1-.41-.761c-.078-.557-.059-1.06.059-1.51.117-.458.283-.878.498-1.259.224-.39.478-.747.761-1.07.284-.331.557-.654.821-.966.058.02.102.02.132 0a.5.5 0 0 0 .102-.102c.029-.05.059-.093.088-.132a.255.255 0 0 1 .132-.074.675.675 0 0 1 .293-.322.848.848 0 0 0 .322-.322.65.65 0 0 0 .22-.088c.058-.04.112-.083.161-.132.059-.049.117-.093.176-.132a.505.505 0 0 1 .205-.102v-.161a.998.998 0 0 0 .381-.264c.088-.107.19-.234.307-.38.088-.01.157-.016.205-.016.059 0 .142-.01.249-.029.078-.137.147-.24.205-.307.069-.069.166-.142.293-.22.118.058.245.097.381.117a.65.65 0 0 1 .381.19c.01.098.039.176.088.235.049.049.103.097.161.146.059.04.112.083.161.132a.353.353 0 0 1 .117.205c.04.01.064.005.074-.014.019-.02.049-.025.088-.015.029.137.063.23.102.278.039.04.078.122.117.25-.048.097-.088.2-.117.307a.304.304 0 0 1-.176.22c-.009.068.01.107.059.117.049 0 .078.024.088.073.01.088-.005.151-.044.19.234.381.444.787.63 1.216.185.42.395.82.63 1.201Zm-1.831 1.392a.835.835 0 0 1 .146-.264.465.465 0 0 0 .117-.307.714.714 0 0 1-.088-.176 1.303 1.303 0 0 1-.014-.22 5.892 5.892 0 0 1-.557-.966 7.21 7.21 0 0 0-.527-.982.372.372 0 0 1-.103.117c-.049.04-.102.03-.161-.03a.315.315 0 0 1-.102.177.31.31 0 0 1-.162.044 1.735 1.735 0 0 1-.19-.044.898.898 0 0 1-.161-.103c-.283.225-.567.444-.85.66a4.226 4.226 0 0 0-.761.746.267.267 0 0 1-.074.03c-.009-.01-.039-.005-.088.014a2.37 2.37 0 0 1-.293.513c-.107.146-.214.298-.322.454-.107.156-.2.322-.278.498a1.687 1.687 0 0 0-.132.615c.166.137.361.22.586.25.225.029.454.034.688.014.245-.02.479-.049.704-.088.234-.049.449-.073.644-.073.41-.098.762-.225 1.055-.38.293-.167.6-.333.923-.499Zm9.814-3.794a5.602 5.602 0 0 1-.088.674c-.039.195-.093.4-.161.615a23.592 23.592 0 0 1-.586 2.256 12.134 12.134 0 0 1-.747 1.919 9.02 9.02 0 0 1-.747.747 2.015 2.015 0 0 1-.791.454 3.62 3.62 0 0 0-.396.073c-.107.02-.214.044-.322.074a3.23 3.23 0 0 1-.161.029.811.811 0 0 0-.146.044 8.06 8.06 0 0 0-.425-.073 4.64 4.64 0 0 0-.352-.015l-.19-.059a8.874 8.874 0 0 1-.235-.073.803.803 0 0 0-.146-.044.519.519 0 0 0-.147-.044 2.423 2.423 0 0 0-.249-.029 1.106 1.106 0 0 1-.41.088c-.176 0-.366-.073-.571-.22-.205-.146-.376-.459-.513-.937a2.93 2.93 0 0 1 .088-.484c.029-.146.064-.258.103-.337.234-.136.429-.205.586-.205.185 0 .361.03.527.088.176.059.347.122.513.19a.916.916 0 0 1 .234.118c.02.01.039.014.059.014h.278l.117-.029.147.015c.058.03.127.044.205.044.097 0 .219-.025.366-.073.068-.03.122-.05.161-.06l.147-.028.117-.118a.485.485 0 0 0 .19-.102.486.486 0 0 0 .117-.132.892.892 0 0 0 .103-.161c.029-.059.068-.122.117-.19a1.58 1.58 0 0 0 .103-.147l.117-.147v-.146c.127-.283.239-.576.337-.879.097-.312.185-.625.263-.937.078-.313.142-.616.191-.909.058-.293.107-.556.146-.79h-.146c-.244 0-.445.004-.601.014-.156 0-.298.01-.425.03-.127.01-.263.029-.41.058-.136.03-.312.063-.527.102l-.22.044a4.432 4.432 0 0 1-.439.205 1.178 1.178 0 0 1-.44.088.834.834 0 0 1-.644-.293.71.71 0 0 1-.323-.498.22.22 0 0 1-.043-.205.968.968 0 0 1-.059-.307v-.469h.19l.103-.103a.344.344 0 0 0 .044-.102l.161-.132c.166-.02.337-.044.513-.073.185-.04.376-.078.571-.117a6.407 6.407 0 0 1 .85-.132 4.94 4.94 0 0 1 .38-.015c.137-.01.293-.015.469-.015h.337c.029-.039.059-.058.088-.058a.378.378 0 0 1 .278.03c.274-.05.528-.079.762-.089.234-.02.444-.03.63-.03h.264c.087 0 .17.006.249.016h.805c.049-.01.127-.015.235-.015.156 0 .254.005.293.015.048 0 .131.01.249.029.136.02.258.039.366.058.117.01.234.015.351.015h.22l.044.147.117.146c.02.049.049.093.088.132.049.039.098.083.147.132.097.097.19.21.278.337.098.127.132.317.103.571l-.103.161a.587.587 0 0 0-.176.132l-.132.117c-.107.01-.2.02-.278.03h-.234c-.147 0-.298-.006-.454-.015l-.469-.03h-.85c-.039 0-.093.005-.161.015Zm9.097-1.45c.01.068.01.122 0 .161a.27.27 0 0 1-.015.088v.102c0 .03.01.079.029.147-.205.332-.444.562-.717.688a3.889 3.889 0 0 1-.865.264 57.18 57.18 0 0 0-.966.161 2.843 2.843 0 0 0-.967.381.44.44 0 0 0-.352 0c-.097.049-.244.064-.439.044a.555.555 0 0 1-.22.132 2.65 2.65 0 0 0-.264.073.54.54 0 0 1 .044.279c0 .087.015.16.044.22.342.028.718.024 1.128-.016.42-.039.83-.063 1.231-.073.009.05.005.083-.015.103-.02.01-.024.034-.015.073.069.049.137.112.205.19l.206.206c.068.068.136.126.205.175a.472.472 0 0 0 .263.044.737.737 0 0 1 .073.264c.02.088.01.18-.029.278-.156.108-.312.22-.469.337a4.134 4.134 0 0 1-.498.293 2.973 2.973 0 0 1-.542.22 2.121 2.121 0 0 1-.629.059h-.118c-.019 0-.048-.015-.088-.044-.078.048-.19.063-.336.043-.137-.019-.245-.004-.323.045a.822.822 0 0 0-.395-.06 1.25 1.25 0 0 1-.396-.058 5.1 5.1 0 0 0-.425.66 5.687 5.687 0 0 0-.336.747c.332.048.605.068.82.058.224-.01.434-.024.63-.044.195-.03.395-.053.6-.073.205-.03.464-.04.777-.03a1.83 1.83 0 0 1 .688-.205c.274-.039.523-.097.747-.175.078.03.147.083.205.16.059.07.113.138.161.206.059.059.118.112.176.161a.281.281 0 0 0 .22.059.264.264 0 0 1 .073.146.82.82 0 0 1 .044.147c.01.049.025.092.044.132.029.029.073.039.132.029-.147.322-.317.571-.513.747a1.92 1.92 0 0 1-.644.38 4.572 4.572 0 0 1-.821.206c-.293.049-.62.107-.981.176a.327.327 0 0 1-.22-.015.648.648 0 0 0-.205-.03 9.194 9.194 0 0 1-.806.133 6.155 6.155 0 0 1-.952.043 4.048 4.048 0 0 1-.923-.131 1.452 1.452 0 0 1-.717-.381.533.533 0 0 1-.161-.235c-.02-.097-.083-.17-.191-.22a4.117 4.117 0 0 0-.058-.424c-.03-.156-.059-.318-.088-.484a10.36 10.36 0 0 1-.074-.512c-.009-.166 0-.318.03-.454a.973.973 0 0 1 .175-.396.43.43 0 0 0 .103-.38c.049-.01.078-.035.088-.074.01-.049.049-.068.117-.059a6.01 6.01 0 0 1 .191-.498c.068-.156.136-.307.205-.454a8.57 8.57 0 0 0 .219-.44 4.83 4.83 0 0 0 .22-.512 1.336 1.336 0 0 1-.308-.41 2.963 2.963 0 0 1-.131-.454 7.603 7.603 0 0 1-.074-.469 2.937 2.937 0 0 0-.102-.498c.097-.146.215-.264.351-.351.147-.098.303-.176.469-.235.166-.058.347-.107.542-.146.195-.04.401-.083.615-.132.391-.127.738-.225 1.04-.293.313-.069.616-.122.909-.161.302-.05.615-.093.937-.132.322-.04.689-.098 1.099-.176.088.088.171.132.249.132.039-.088.083-.112.132-.073.058.029.083 0 .073-.088.097.166.22.307.366.425.156.107.327.2.513.278Zm5.595 8.276a4.17 4.17 0 0 1-.585-.014 1.246 1.246 0 0 0-.63.102 11.154 11.154 0 0 1-3.062-.586 4.149 4.149 0 0 0-.293-.293.805.805 0 0 0-.395-.205 2.236 2.236 0 0 1-.572-.674 4.491 4.491 0 0 1-.351-.864 4.931 4.931 0 0 1-.176-.923 7.47 7.47 0 0 1-.029-.923 3.37 3.37 0 0 1 .615-1.127c.273-.323.552-.64.835-.953a.97.97 0 0 0 .278-.175c.069-.069.137-.127.205-.176.078-.059.152-.113.22-.161.078-.059.147-.127.205-.205a1.85 1.85 0 0 0 .527-.206c.157-.097.308-.195.455-.292.146-.108.297-.206.454-.293.156-.088.337-.157.542-.206a.827.827 0 0 1 .278-.205c.107-.058.215-.112.322-.16.117-.06.225-.118.322-.177a.643.643 0 0 0 .25-.234c.048.078.117.108.205.088.087-.03.17-.059.249-.088.048-.01.088 0 .117.03a.923.923 0 0 1 .102.087.32.32 0 0 0 .074.059c.029 0 .053-.025.073-.073.049 0 .063.024.044.073a1.68 1.68 0 0 1-.044.102c.078-.01.141.01.19.059a.57.57 0 0 0 .264.073c.039.05.049.088.029.117-.019.02-.029.059-.029.118.293.088.478.23.557.424a.804.804 0 0 1 .014.586 1.46 1.46 0 0 1-.366.572 1.323 1.323 0 0 1-.571.351 15.35 15.35 0 0 0-1.333.425c-.41.146-.747.366-1.011.66a2.48 2.48 0 0 0-.63.277 3.657 3.657 0 0 0-.513.381 6.567 6.567 0 0 0-.454.44 9.09 9.09 0 0 1-.439.44.47.47 0 0 1-.073.322 4.273 4.273 0 0 0-.147.22c.02.146.054.278.103.395.048.107.102.215.161.322a9.184 9.184 0 0 0 2.051.366c.732.05 1.464.078 2.197.088.068.098.146.19.234.278.098.079.186.166.264.264.078.088.141.19.19.308a.696.696 0 0 1 .03.41 3.625 3.625 0 0 1-.455.41c-.166.117-.332.24-.498.366Zm9.947-7.075c-.244 0-.508.02-.791.059-.283.029-.562.063-.835.102a13.274 13.274 0 0 1-1.055.117 7.146 7.146 0 0 1-.425 1.055 7.944 7.944 0 0 0-.219.513c-.059.166-.118.346-.176.542a5.149 5.149 0 0 0-.249.44 2.285 2.285 0 0 0-.147.439 1.589 1.589 0 0 0-.263.469 3.704 3.704 0 0 0-.132.41l-.059.175a.359.359 0 0 0-.102.147.2.2 0 0 1-.074.088.823.823 0 0 1-.102.322.818.818 0 0 0-.044.146.393.393 0 0 0-.015.088c0 .098-.024.161-.073.19a.44.44 0 0 1 0 .162l-.029.147c-.03.117-.039.21-.03.278.03.039.054.073.074.102.029.03.048.069.058.117.059.04.103.064.132.074.039.029.098.063.176.102l.132.147c.049.283.005.508-.132.674-.147.185-.396.278-.747.278h-.176a.357.357 0 0 1-.088-.117l-.19-.073a.295.295 0 0 1-.132-.118c-.127-.058-.23-.107-.308-.146l-.132-.073v-.176a1.077 1.077 0 0 1-.161-.293 4.146 4.146 0 0 1-.073-.322 1.978 1.978 0 0 0-.073-.25.662.662 0 0 0-.088-.204c-.02-.567.034-1.045.161-1.436.127-.39.259-.767.396-1.128l.234-.586c.078-.205.146-.415.205-.63l.132-.146c.068-.157.122-.284.161-.381l.146-.322c.03-.069.054-.132.074-.19l.073-.177a.817.817 0 0 0-.161.015.755.755 0 0 0-.147.015 5.89 5.89 0 0 0-.161.029h-.146a.517.517 0 0 1-.147-.015.836.836 0 0 1-.351.074h-.235a.128.128 0 0 0-.058-.015.531.531 0 0 0-.235.044h-.483a.235.235 0 0 0-.073.014h-.074c-.068 0-.141-.004-.219-.014a1.039 1.039 0 0 1-.249-.103c-.118-.156-.196-.239-.235-.249l-.132-.176a.709.709 0 0 0-.044-.16 4.614 4.614 0 0 1-.058-.191c-.039-.098-.078-.2-.117-.308a1.668 1.668 0 0 1-.044-.41.377.377 0 0 1 .058-.176c.03-.039.054-.073.074-.102l.044-.22.19.015h.41c.313 0 .63-.01.952-.03l.996-.087.586-.059c.205-.02.415-.04.63-.059a6.59 6.59 0 0 1 .117-.249l.147-.073c.176-.01.298.015.366.073.078.05.142.098.191.147l.644-.059c.225-.03.449-.063.674-.102.332-.05.664-.093.996-.132.342-.04.669-.059.981-.059.137 0 .269.005.396.015.127.01.244.024.351.044l.147.102a.607.607 0 0 0 .117.162l.176.146c.117.107.234.234.352.38.117.147.161.362.131.645-.078.118-.136.186-.175.205l-.132.176-.147-.014a.432.432 0 0 0-.161.029.806.806 0 0 0-.146.044l-.118.058a3.05 3.05 0 0 1-.131.03h-.22a.827.827 0 0 0-.161-.015Zm-.908.454a1.32 1.32 0 0 1 .322-.527c.156-.147.322-.269.498-.366.185-.108.376-.196.571-.264.195-.068.381-.127.557-.176.39-.166.805-.322 1.245-.469a16.75 16.75 0 0 1 1.362-.41c.469-.117.947-.19 1.436-.22a4.298 4.298 0 0 1 1.538.176c.029.098.073.19.132.279l.175.263c.069.088.127.176.176.264a.588.588 0 0 1 .088.249c.098.088.176.186.234.293.059.098.069.23.03.396a6.16 6.16 0 0 1-.293.22 2.113 2.113 0 0 1-.293.16 3.467 3.467 0 0 0-1.099-.088c-.371.03-.703.054-.996.074a.438.438 0 0 0-.322-.132c-.117 0-.244.02-.381.058-.127.04-.259.079-.396.118a.79.79 0 0 1-.366.029.833.833 0 0 1-.366.161c-.137.02-.288.04-.454.059-.01.049 0 .083.029.102.03.01.034.04.015.088a.488.488 0 0 0 .22.147l.293.088c.107.029.2.068.278.117a.316.316 0 0 1 .161.205c.147 0 .274.034.381.102a.936.936 0 0 1 .41.572.869.869 0 0 1 .059.293c.029.078.063.112.102.102.039-.01.083.01.132.059a.953.953 0 0 0 .22.395c.117.127.21.269.278.425.02.244.034.464.044.66.01.185-.024.375-.102.57a3.141 3.141 0 0 1-.616.967 4.746 4.746 0 0 1-.879.762 6.26 6.26 0 0 1-1.04.557c-.371.156-.732.288-1.084.395a.239.239 0 0 0-.117 0c-.039.01-.049-.015-.029-.073a.562.562 0 0 1-.264.132.951.951 0 0 1-.293.014 4.42 4.42 0 0 1-.337-.014 1.064 1.064 0 0 0-.307.014 3.578 3.578 0 0 1-.191-.205.65.65 0 0 1-.117-.234c-.049 0-.073-.025-.073-.073.01-.05-.005-.074-.044-.074.058-.097.083-.15.073-.16 0-.02-.015-.035-.044-.045l-.058-.029c-.02-.02-.025-.044-.015-.073a.471.471 0 0 0 .044-.264l-.029-.322a1.08 1.08 0 0 1 .014-.308c.03-.097.103-.175.22-.234.332.039.644.03.937-.03a4.48 4.48 0 0 0 .85-.278c.264-.117.513-.244.747-.38a9.78 9.78 0 0 1 .718-.367.661.661 0 0 1 .117-.22c.059-.058.117-.112.176-.16.058-.05.112-.103.161-.162a.513.513 0 0 0 .103-.22c.009-.068-.01-.107-.059-.117-.039-.02-.059-.058-.059-.117l-.161-.044a2.815 2.815 0 0 0-.63-.264 3.994 3.994 0 0 1-.6-.248.392.392 0 0 1-.308.043 3.058 3.058 0 0 0-.351-.087c-.332-.02-.655-.054-.967-.103a3.496 3.496 0 0 1-.879-.264.602.602 0 0 0-.073-.132c-.03-.039-.083-.048-.162-.029a4.306 4.306 0 0 0-.175-.22 2.024 2.024 0 0 1-.161-.249c.019-.117.034-.214.044-.292a.32.32 0 0 0-.088-.25c.039-.127.068-.23.088-.307a.826.826 0 0 0 0-.308Zm10.766-3.486c0 .088-.015.195-.044.322l-.058.381a1.42 1.42 0 0 0-.015.352c.01.097.054.16.132.19a10.24 10.24 0 0 0-.366 1.304 66.8 66.8 0 0 0-.162 1.01c-.039.313-.092.645-.161.996-.068.352-.19.782-.366 1.29-.107.312-.239.532-.395.659a.82.82 0 0 1-.498.176c-.176 0-.357-.05-.542-.147a3.773 3.773 0 0 1-.513-.322 3.032 3.032 0 0 1-.015-.674c.029-.274.064-.557.103-.85.039-.293.078-.57.117-.835.039-.273.068-.502.088-.688a1.67 1.67 0 0 0 .205-.264.59.59 0 0 0 .073-.22c.02-.078.034-.175.044-.292.01-.118.034-.284.073-.498.02-.108.01-.2-.029-.279a.447.447 0 0 1-.015-.249.194.194 0 0 1 .088-.088.134.134 0 0 0 .088-.102c.039-.127.049-.225.029-.293a.437.437 0 0 1 .044-.279c.049-.078.108-.2.176-.366a1.04 1.04 0 0 0 .088-.542 1.82 1.82 0 0 0 .249-.234 2.65 2.65 0 0 1 .234-.234 1.28 1.28 0 0 1 .279-.19.911.911 0 0 1 .381-.074c.078.107.136.21.175.307a4.9 4.9 0 0 1 .103.279c.039.088.088.17.146.249a.736.736 0 0 0 .264.205Zm-1.45 8.335c.019.078.034.151.044.22.01.068.019.141.029.22-.058.204-.122.39-.19.556l-.059.132a.105.105 0 0 0-.014.044c0 .01.004.024.014.044.01.01.015.049.015.117l-.073.176a.558.558 0 0 1-.176.16 1.182 1.182 0 0 1-.191.103.32.32 0 0 1-.102.044.472.472 0 0 0-.073.059l-.044.176-.205.029a1.773 1.773 0 0 1-.425.058h-.161a12.09 12.09 0 0 0-.279-.248 1.388 1.388 0 0 0-.234-.162 1.404 1.404 0 0 1-.191-.483c-.019-.127-.043-.21-.073-.25l-.205-.204.176-.132-.176-.278a5.1 5.1 0 0 1 .264-.19.988.988 0 0 0 .146-.118c.049-.049.098-.107.147-.176.049-.068.127-.18.234-.337l.132-.19.176.102c.049.03.137.06.263.088.137.02.254.04.352.059.156.049.308.088.454.117.156.02.278.069.366.147l.059.117Z"/>
  <path stroke="#E87449" stroke-linecap="round" stroke-width="2" d="M4.356 25.292c-.173.412-.357.516-.737.645-.324.11-.54.287-.875.292-.148.002-.286.087-.44.09-.129.001-.304-.021-.406.063-.182.151-1.108-.199-.282.2.438.21.905.29 1.327.515.323.174.708.263 1.044.414.578.26.94.755 1.423 1.136"/>
  <path stroke="#E87449" stroke-linecap="round" stroke-width="2" d="M3.085 26.477c.875.181 1.763.434 2.65.535.645.073 1.272-.047 1.902-.089.923-.062 1.905-.089 2.816-.261.858-.163 1.717-.328 2.572-.48.726-.13 1.355-.428 1.987-.792.322-.185.736-.267 1.08-.413.24-.101.403-.292.633-.412.365-.191.892-.332 1.202-.596.132-.112.304-.197.408-.337.145-.197.438-.236.596-.42.115-.133.251-.203.373-.345.115-.133.193-.265.293-.392m149.644 5.817c.173.412.357.516.737.645.324.11.539.287.874.292.148.002.287.087.441.09.128.001.304-.021.406.063.182.151 1.108-.198.282.2-.438.21-.906.29-1.327.515-.323.174-.709.263-1.044.414-.578.26-.941.755-1.424 1.136"/>
  <path stroke="#E87449" stroke-linecap="round" stroke-width="2" d="M170.512 29.477c-.876.181-1.763.434-2.651.535-.644.073-1.271-.047-1.902-.089-.923-.062-1.905-.089-2.815-.261-.858-.163-1.717-.328-2.573-.48-.725-.13-1.354-.428-1.986-.792-.323-.185-.736-.267-1.081-.413-.239-.101-.402-.292-.632-.412-.366-.191-.892-.332-1.202-.596-.133-.112-.304-.196-.409-.337-.145-.197-.438-.236-.596-.42-.115-.133-.25-.203-.373-.345-.115-.133-.192-.265-.292-.392"/>
</svg>
