<svg xmlns="http://www.w3.org/2000/svg" width="106" height="55" fill="none" viewBox="0 0 106 55">
  <path fill="#E87449" d="M34.19 10.394c.03-.147.05-.264.059-.352a.448.448 0 0 0-.102-.308c.038-.156.068-.278.087-.366a.862.862 0 0 0 .015-.366 1.68 1.68 0 0 1 .395-.645 2.9 2.9 0 0 1 .601-.439c.215-.127.44-.23.674-.308a9.1 9.1 0 0 1 .66-.22c0-.038-.02-.058-.06-.058-.038 0-.048-.024-.029-.073.528-.098 1.055-.24 1.582-.425a22.759 22.759 0 0 1 1.64-.498 8.354 8.354 0 0 1 1.715-.264 5.364 5.364 0 0 1 1.846.22c.038.117.092.23.16.337l.206.322c.078.098.146.195.205.293a.72.72 0 0 1 .102.308c.117.107.21.224.279.351.078.118.092.279.044.484-.108.078-.22.156-.337.234-.117.078-.24.151-.367.22a4.313 4.313 0 0 0-1.318-.117c-.44.029-.835.063-1.187.102a.456.456 0 0 0-.38-.161c-.147 0-.303.024-.47.073-.155.04-.312.083-.468.132a1.14 1.14 0 0 1-.44.03.912.912 0 0 1-.424.204c-.176.03-.361.054-.557.074-.01.049 0 .083.03.102.029.02.034.059.014.117a.571.571 0 0 0 .279.19l.351.089c.127.03.24.073.337.132a.36.36 0 0 1 .19.249c.176.01.328.058.455.146a1.156 1.156 0 0 1 .512.674.915.915 0 0 1 .044.351c.04.098.078.137.117.118.05-.02.103.005.162.073.039.146.127.303.263.469.147.156.259.327.337.512.02.293.034.557.044.791.02.235-.02.464-.117.689a3.65 3.65 0 0 1-.718 1.157 5.66 5.66 0 0 1-1.07.908 8.95 8.95 0 0 1-1.244.674c-.44.186-.874.342-1.304.469a.365.365 0 0 0-.147 0c-.048.01-.058-.02-.029-.088a.603.603 0 0 1-.307.146c-.108.02-.23.025-.367.015-.127 0-.258-.005-.395-.015a1.659 1.659 0 0 0-.381.015 4.814 4.814 0 0 1-.22-.234 1.072 1.072 0 0 1-.146-.279c-.05-.01-.074-.039-.074-.087.01-.059-.01-.088-.058-.088 0-.04.005-.069.015-.088l.029-.059c.039-.03.054-.049.044-.058 0-.02-.015-.035-.044-.044a.49.49 0 0 0-.073-.059c-.02-.02-.025-.044-.015-.073a.461.461 0 0 0 .044-.308l-.03-.38c-.01-.128 0-.245.03-.352.03-.117.112-.215.249-.293.4.039.776.02 1.128-.059a5.32 5.32 0 0 0 1.01-.322c.323-.137.626-.283.909-.44.293-.165.576-.317.85-.454a.675.675 0 0 1 .131-.249c.069-.068.137-.131.205-.19.069-.068.132-.137.19-.205a.816.816 0 0 0 .133-.278c.01-.04.01-.069 0-.088a.096.096 0 0 0-.044-.044l-.059-.059c-.02-.02-.03-.049-.03-.088l-.087-.03a.13.13 0 0 0-.059-.014 5.328 5.328 0 0 0-.805-.322 3.897 3.897 0 0 1-.718-.293.387.387 0 0 1-.352.059 4.995 4.995 0 0 0-.425-.118c-.41-.02-.8-.058-1.171-.117a4.495 4.495 0 0 1-1.055-.307.513.513 0 0 0-.073-.147c-.03-.049-.098-.063-.205-.044a1.967 1.967 0 0 0-.22-.263 2.161 2.161 0 0 1-.19-.293Zm16.7 6.796a1.948 1.948 0 0 1-.82-.688 13.5 13.5 0 0 1-.587-1.01l-.087-.177a2.39 2.39 0 0 0-.088-.16l-.206-.382-.117-.234-.175.161-.264.235-.147.146c-.254.234-.512.469-.776.703-.254.225-.527.43-.82.615a4.876 4.876 0 0 1-.908.44 3.414 3.414 0 0 1-1.026.176l-.322-.162a8.102 8.102 0 0 1-.469-.263 2.542 2.542 0 0 1-.44-.366 6.491 6.491 0 0 1-.131-.25 2.442 2.442 0 0 0-.103-.234 6.635 6.635 0 0 1-.263-.527 7.567 7.567 0 0 1-.206-.527c.03-.137.074-.367.132-.689.059-.332.127-.693.206-1.084l.263-1.172c.098-.4.195-.747.293-1.04.088-.254.186-.522.293-.805.117-.284.24-.542.366-.777.137-.244.284-.45.44-.615.156-.176.322-.278.498-.308a.45.45 0 0 0 .16.147c.06.03.113.053.162.073.137.195.269.361.396.498.136.137.293.274.468.41a7.493 7.493 0 0 1-.22.82c-.087.293-.185.591-.292.894-.098.293-.196.581-.293.864-.098.284-.176.528-.235.733a3.818 3.818 0 0 0-.146.556c-.088.362-.171.855-.25 1.48a1.18 1.18 0 0 0 .382-.19c.136-.098.268-.2.395-.308a6.805 6.805 0 0 0 .908-.908c.127-.157.244-.318.352-.484.117-.166.234-.346.352-.542.117-.205.258-.444.424-.718.147-.234.298-.483.454-.747.166-.273.328-.532.484-.776.166-.254.327-.483.483-.688.156-.206.298-.367.425-.484.078.098.176.19.293.278.127.088.259.157.395.206.059.087.113.17.162.249.058.068.112.131.16.19.06.088.113.17.162.249.058.078.112.156.161.234a7.244 7.244 0 0 1-.117.616 6.972 6.972 0 0 1-.161.761l-.176.835c-.04.186-.069.332-.088.44-.01.107-.02.2-.03.278v.293a.985.985 0 0 0 .015.293c.01.088.03.18.059.278.03.098.068.186.117.264l.586-.454a2.2 2.2 0 0 0 .469-.513c.156-.224.303-.478.44-.761.146-.293.287-.61.424-.953.137-.341.273-.688.41-1.04.205-.517.41-1.02.615-1.508.215-.489.42-.865.616-1.128.215.136.4.278.556.424.166.137.308.289.425.455.117.166.21.356.278.57.079.216.132.47.162.763a26.44 26.44 0 0 0-.513 1.054c-.156.361-.308.723-.454 1.084-.196.469-.4.938-.616 1.407-.205.468-.434.917-.688 1.347-.254.42-.537.81-.85 1.172-.312.352-.673.65-1.084.893a1.085 1.085 0 0 0-.278-.043.604.604 0 0 0-.395.131Zm7.236-1.215c.049.293.03.522-.059.688a.754.754 0 0 1-.351.366 1.086 1.086 0 0 1-.513.147c-.195.01-.38 0-.556-.03a2.273 2.273 0 0 1-.264-.512 11.888 11.888 0 0 1-.41-1.29 81.134 81.134 0 0 0-.132-.57 1.25 1.25 0 0 0 .088-.396 3.69 3.69 0 0 0 .029-.469c.01-.156.015-.312.015-.469.01-.166.024-.322.044-.468.068-.41.166-.801.293-1.172a7.49 7.49 0 0 0 .322-1.157.364.364 0 0 0-.03-.25.345.345 0 0 1-.014-.22c.01-.038.039-.063.088-.072a.134.134 0 0 0 .088-.103.5.5 0 0 0 .014-.264.437.437 0 0 1 .059-.249c.049-.078.107-.19.176-.337a.841.841 0 0 0 .088-.483c.087-.059.17-.127.249-.205a2.145 2.145 0 0 1 .512-.381.914.914 0 0 1 .381-.073.691.691 0 0 1 .147.322c.029.117.053.235.073.352.03.117.068.23.117.337a.53.53 0 0 0 .25.234v.293c0 .117.004.234.014.352.01.107.029.21.058.307.04.088.098.147.176.176-.176.469-.342.933-.498 1.392a13.88 13.88 0 0 0-.366 1.391 9.532 9.532 0 0 0-.19 1.392c-.02.469.014.942.102 1.42Zm7.222-8.057c.41.049.776.132 1.098.249.323.117.596.273.82.469.157.244.303.508.44.79.147.284.254.582.322.894.078.303.113.615.103.938 0 .322-.069.65-.205.981-.283.352-.63.64-1.04.864-.4.215-.835.391-1.304.528a16.05 16.05 0 0 1-1.465.351c-.498.098-.986.196-1.465.293.01.225.01.464 0 .718 0 .244-.024.493-.073.747a3.71 3.71 0 0 1-.19.718c-.088.234-.205.45-.352.645-.166 0-.337.02-.513.058a8.13 8.13 0 0 1-.468.117 3.193 3.193 0 0 1-.19-.117.544.544 0 0 0-.22-.059.372.372 0 0 0-.074-.292l-.205-.323a1.247 1.247 0 0 1-.146-.307c-.02-.098.029-.19.146-.279a.357.357 0 0 1-.102-.263c.068-.117.127-.279.175-.484.059-.205.103-.405.132-.6.04-.205.05-.39.03-.557-.02-.166-.118-.288-.293-.366.01-.02.029-.03.058-.03.03 0 .059-.004.088-.014a.383.383 0 0 1-.146-.25.535.535 0 0 0-.103-.277 1.05 1.05 0 0 0 .044-.132c.01-.04.044-.054.102-.044a1.421 1.421 0 0 1 0-.498 2.14 2.14 0 0 1 .162-.44c.068-.146.151-.288.249-.425a10.1 10.1 0 0 0 .278-.41c.068-.01.107 0 .117.03.02.029.054.024.103-.015a.84.84 0 0 0 .263-.308.877.877 0 0 0 .074-.366c.068-.205.151-.41.249-.615.097-.215.205-.41.322-.586.117-.176.244-.332.38-.469.147-.136.299-.239.455-.307a1.87 1.87 0 0 1 .44-.264c.175-.088.366-.151.57-.19.206-.05.41-.074.616-.074.215-.01.41.01.586.059.049.02.073.01.073-.03.01-.038.03-.058.059-.058Zm-.6 3.5c.243-.106.502-.19.775-.248.284-.068.518-.19.704-.366a1.472 1.472 0 0 0-.513-.279 2.53 2.53 0 0 0-1.538-.088 1.496 1.496 0 0 0-.689.352 16.1 16.1 0 0 1-.146.425c-.04.098-.093.22-.161.366a.26.26 0 0 0 .088.117c.048.02.083.054.102.103.225-.117.45-.18.674-.19a2.1 2.1 0 0 0 .703-.191Zm11.117-2.665c.01.068.01.122 0 .161 0 .03-.005.059-.014.088v.102c0 .03.01.079.029.147-.205.332-.444.562-.718.688a3.885 3.885 0 0 1-.864.264c-.313.049-.635.103-.967.161a2.85 2.85 0 0 0-.967.381.44.44 0 0 0-.351 0c-.098.049-.244.064-.44.044a.551.551 0 0 1-.22.132c-.087.02-.175.044-.263.073a.54.54 0 0 1 .044.279c0 .087.014.16.044.22a6.33 6.33 0 0 0 1.128-.016c.42-.039.83-.063 1.23-.073.01.05.005.083-.014.103-.02.01-.025.034-.015.073.068.049.137.112.205.19l.205.206c.068.068.137.126.205.175a.473.473 0 0 0 .264.044.757.757 0 0 1 .073.264c.02.088.01.18-.03.278-.156.108-.312.22-.468.337a4.165 4.165 0 0 1-.498.293 2.994 2.994 0 0 1-.542.22 2.128 2.128 0 0 1-.63.059h-.117c-.02 0-.049-.015-.088-.044-.078.048-.19.063-.337.043-.137-.019-.244-.004-.322.045a.825.825 0 0 0-.396-.06c-.146 0-.278-.019-.395-.058a5.078 5.078 0 0 0-.425.66c-.127.234-.24.483-.337.747.332.048.606.068.82.058.225-.01.435-.024.63-.044.195-.03.396-.053.6-.073.206-.03.465-.04.777-.03.196-.107.425-.175.689-.205a3.99 3.99 0 0 0 .747-.175.47.47 0 0 1 .205.16 3.4 3.4 0 0 1 .16.206c.06.059.118.112.177.161a.28.28 0 0 0 .22.059.271.271 0 0 1 .073.146.83.83 0 0 1 .044.147c.01.049.024.092.044.132.029.029.073.039.131.029-.146.322-.317.571-.512.747-.186.166-.4.293-.645.38a4.574 4.574 0 0 1-.82.206c-.293.049-.62.107-.982.176a.326.326 0 0 1-.22-.015.65.65 0 0 0-.204-.03 9.252 9.252 0 0 1-.806.133c-.313.039-.63.053-.952.043a4.043 4.043 0 0 1-.923-.131 1.457 1.457 0 0 1-.718-.381.535.535 0 0 1-.161-.235c-.02-.097-.083-.17-.19-.22a3.971 3.971 0 0 0-.059-.424c-.03-.156-.059-.318-.088-.484a9.268 9.268 0 0 1-.073-.512c-.01-.166 0-.318.03-.454a.966.966 0 0 1 .175-.396.43.43 0 0 0 .102-.38c.05-.01.079-.035.088-.074.01-.049.05-.068.118-.059a5.9 5.9 0 0 1 .19-.498c.068-.156.137-.307.205-.454.078-.146.151-.293.22-.44.078-.155.151-.326.22-.512a1.33 1.33 0 0 1-.308-.41 2.936 2.936 0 0 1-.132-.454 7.752 7.752 0 0 1-.073-.469 3.019 3.019 0 0 0-.103-.498 1.2 1.2 0 0 1 .352-.351c.146-.098.303-.176.469-.235.166-.058.346-.107.542-.146.195-.04.4-.083.615-.132a11.9 11.9 0 0 1 1.04-.293c.312-.069.615-.122.908-.161.303-.05.615-.093.938-.132.322-.04.688-.098 1.098-.176.088.088.171.132.25.132.038-.088.082-.112.131-.073.059.029.083 0 .073-.088.098.166.22.307.367.425.156.107.327.2.512.278Zm15.337 7.983c-.097.05-.19.093-.278.132a.617.617 0 0 1-.279.059c-.38-.283-.58-.777-.6-1.48-.01-.703.141-1.596.454-2.68.049-.03.073-.088.073-.176l-.132-.147a.48.48 0 0 0-.117.015c-.03.01-.053.044-.073.103-.254.185-.532.38-.835.586-.303.195-.62.38-.952.556a6.3 6.3 0 0 1-.996.41c-.332.108-.66.161-.982.161-.82 0-1.435-.415-1.845-1.245l-.118-.22-.117.191a1.63 1.63 0 0 0-.132.249 4.273 4.273 0 0 0-.175.41 7.02 7.02 0 0 0-.162.484 1.278 1.278 0 0 0-.043.41 4.73 4.73 0 0 0-.279.307 1.25 1.25 0 0 0-.22.396.288.288 0 0 0 .03.22.33.33 0 0 1-.132.205 2.15 2.15 0 0 1-.132.146.68.68 0 0 0-.102.132.831.831 0 0 0-.044.146.742.742 0 0 1-.015.147c0 .068-.01.132-.03.19-.165.342-.297.562-.395.66a.508.508 0 0 1-.395.16c-.078 0-.205-.014-.381-.043a2.1 2.1 0 0 1-.352-.557 4.784 4.784 0 0 1-.234-.776 4.66 4.66 0 0 1-.073-.82c.01-.284.058-.528.146-.733 0-.01.04-.107.117-.293a43.8 43.8 0 0 0 .293-.718 132.069 132.069 0 0 1 .894-2.007c.156-.341.303-.654.44-.937.146-.283.268-.498.365-.645a8.02 8.02 0 0 0 .206-.322c.068-.107.131-.21.19-.308.176-.302.342-.551.498-.747.166-.205.405-.366.718-.483.215.088.371.19.469.308l.029.16c.039.098.098.147.176.147.107.03.195.059.263.088.079.02.162.04.25.059.068.078.131.17.19.278.078.117.151.234.22.352.078.107.136.22.175.337.05.107.074.22.074.336a.82.82 0 0 1-.059.367l.015.146c.048.088.058.21.029.366a1.55 1.55 0 0 0-.015.22c0 .068.01.147.03.235.175.136.332.204.468.204a.88.88 0 0 0 .425-.102c.137-.078.264-.156.381-.234.078-.059.156-.108.234-.147a.578.578 0 0 1 .235-.088c.175-.166.332-.312.469-.44.146-.126.297-.253.454-.38.293-.234.576-.488.85-.762.273-.273.492-.615.658-1.025a.589.589 0 0 1 .308-.088c.107 0 .22.024.337.073.117.049.23.098.337.147.03.02.053.034.073.044.03.01.054.02.073.029 0 .098.04.18.118.249.038.03.063.049.073.059.01.01.024.02.044.029.146.078.239.156.278.234a.91.91 0 0 0 .366.513.669.669 0 0 0 0 .278c.03.078.064.161.103.25l.029.087c.01.03.024.064.044.103l-.278-.03.044.279c.02.136.005.288-.044.454-.04.166-.088.298-.147.395.01.254.015.454.015.6a1.725 1.725 0 0 1-.103.733 2.196 2.196 0 0 1-.132.352 4.248 4.248 0 0 1-.22 1.714c-.175.507-.36.986-.556 1.435-.02.05-.044.098-.073.147l-.059.146a1.3 1.3 0 0 0-.234.103 4.47 4.47 0 0 0-.22.102Zm10.254-7.983c.01.068.01.122 0 .161a.27.27 0 0 1-.015.088v.102c0 .03.01.079.03.147-.205.332-.445.562-.718.688a3.894 3.894 0 0 1-.864.264c-.313.049-.635.103-.967.161a2.85 2.85 0 0 0-.967.381.44.44 0 0 0-.352 0c-.097.049-.244.064-.439.044a.552.552 0 0 1-.22.132c-.088.02-.175.044-.263.073a.55.55 0 0 1 .044.279c0 .087.014.16.044.22.341.028.717.024 1.127-.016.42-.039.83-.063 1.231-.073.01.05.005.083-.015.103-.02.01-.024.034-.014.073.068.049.136.112.205.19l.205.206c.068.068.136.126.205.175a.473.473 0 0 0 .264.044.75.75 0 0 1 .073.264.47.47 0 0 1-.029.278c-.157.108-.313.22-.47.337a4.175 4.175 0 0 1-.497.293 2.994 2.994 0 0 1-.542.22 2.128 2.128 0 0 1-.63.059h-.117c-.02 0-.05-.015-.088-.044-.078.048-.19.063-.337.043-.137-.019-.244-.004-.322.045a.825.825 0 0 0-.396-.06c-.146 0-.278-.019-.395-.058a5.057 5.057 0 0 0-.425.66c-.127.234-.24.483-.337.747.332.048.605.068.82.058.225-.01.435-.024.63-.044.195-.03.395-.053.6-.073.206-.03.465-.04.777-.03.195-.107.425-.175.689-.205a3.99 3.99 0 0 0 .747-.175.47.47 0 0 1 .205.16c.058.07.112.138.161.206.058.059.117.112.176.161a.278.278 0 0 0 .219.059.258.258 0 0 1 .073.146.74.74 0 0 1 .044.147c.01.049.025.092.044.132.03.029.074.039.132.029-.146.322-.317.571-.512.747a1.95 1.95 0 0 1-.645.38 4.572 4.572 0 0 1-.82.206c-.293.049-.62.107-.982.176a.326.326 0 0 1-.22-.015.65.65 0 0 0-.205-.03 9.252 9.252 0 0 1-.805.133c-.313.039-.63.053-.952.043a4.043 4.043 0 0 1-.923-.131 1.457 1.457 0 0 1-.718-.381.535.535 0 0 1-.161-.235c-.02-.097-.083-.17-.19-.22a3.971 3.971 0 0 0-.06-.424 43.49 43.49 0 0 1-.087-.484 9.268 9.268 0 0 1-.073-.512c-.01-.166 0-.318.029-.454a.966.966 0 0 1 .176-.396.43.43 0 0 0 .102-.38c.05-.01.078-.035.088-.074.01-.049.049-.068.117-.059a5.9 5.9 0 0 1 .19-.498c.07-.156.138-.307.206-.454.078-.146.151-.293.22-.44.078-.155.151-.326.22-.512a1.327 1.327 0 0 1-.308-.41 2.937 2.937 0 0 1-.132-.454 7.752 7.752 0 0 1-.073-.469 3.009 3.009 0 0 0-.103-.498 1.2 1.2 0 0 1 .352-.351c.146-.098.302-.176.468-.235a3.97 3.97 0 0 1 .542-.146c.196-.04.4-.083.616-.132a11.9 11.9 0 0 1 1.04-.293c.312-.069.615-.122.908-.161.303-.05.615-.093.937-.132.323-.04.689-.098 1.099-.176.088.088.171.132.249.132.039-.088.083-.112.132-.073.058.029.083 0 .073-.088.098.166.22.307.366.425.157.107.328.2.513.278Zm3.691-1.831c0 .088-.014.195-.043.322l-.059.381a1.47 1.47 0 0 0-.015.352c.01.097.054.16.132.19a10.24 10.24 0 0 0-.366 1.304 65.63 65.63 0 0 0-.161 1.01c-.039.313-.093.645-.161.996a9.868 9.868 0 0 1-.367 1.29c-.107.312-.239.532-.395.659a.815.815 0 0 1-.498.176c-.176 0-.357-.05-.542-.147a3.773 3.773 0 0 1-.513-.322 2.979 2.979 0 0 1-.014-.674c.029-.274.063-.557.102-.85.039-.293.078-.57.117-.835.039-.273.069-.502.088-.688a1.61 1.61 0 0 0 .205-.264.572.572 0 0 0 .073-.22 1.73 1.73 0 0 0 .044-.292c.01-.118.035-.284.074-.498a.44.44 0 0 0-.03-.279.437.437 0 0 1-.014-.249.19.19 0 0 1 .088-.088.133.133 0 0 0 .087-.102.544.544 0 0 0 .03-.293.424.424 0 0 1 .044-.279c.049-.078.107-.2.176-.366a1.04 1.04 0 0 0 .087-.542 1.82 1.82 0 0 0 .249-.234c.079-.088.157-.166.235-.234.088-.079.18-.142.278-.19a.915.915 0 0 1 .381-.074c.078.107.137.21.176.307.039.098.073.19.102.279.039.088.088.17.147.249a.723.723 0 0 0 .263.205Zm-1.45 8.335c.02.078.034.151.044.22l.03.22c-.059.204-.123.39-.191.556a2.497 2.497 0 0 1-.059.132.122.122 0 0 0-.014.044c0 .01.005.024.014.044.01.01.015.049.015.117l-.073.176a.558.558 0 0 1-.176.16 1.172 1.172 0 0 1-.19.103.335.335 0 0 1-.103.044.472.472 0 0 0-.073.059l-.044.176-.205.029a1.767 1.767 0 0 1-.425.058h-.161c-.117-.107-.21-.19-.278-.248a1.44 1.44 0 0 0-.235-.162 1.4 1.4 0 0 1-.19-.483.654.654 0 0 0-.073-.25l-.206-.204.176-.132-.176-.278c.118-.088.206-.152.264-.19a.95.95 0 0 0 .147-.118 1.45 1.45 0 0 0 .146-.176c.049-.068.127-.18.235-.337l.131-.19.176.102a.94.94 0 0 0 .264.088c.137.02.254.04.351.059.157.049.308.088.454.117.157.02.279.069.367.147l.058.117Z"/>
  <path stroke="#E87449" stroke-linecap="round" stroke-width="2" d="M8.15 44.49c-.924-.167-1.318.04-1.981.562-.565.447-1.123.625-1.515 1.211-.173.259-.482.406-.663.676-.15.224-.31.56-.576.643-.475.15-.917 2.184-.675.27.128-1.015.524-1.93.607-2.934.064-.768.346-1.551.463-2.316.202-1.319-.257-2.525-.377-3.813"/>
  <path stroke="#E87449" stroke-linecap="round" stroke-width="2" d="M4.605 45.378c.682-1.753 1.25-3.61 2.087-5.293.608-1.222 1.537-2.191 2.333-3.256 1.165-1.56 2.336-3.262 3.683-4.672 1.269-1.33 2.542-2.659 3.79-3.994 1.058-1.134 2.304-1.903 3.67-2.603.696-.357 1.313-.995 1.966-1.436.453-.306.975-.375 1.45-.644.757-.427 1.607-1.196 2.427-1.442.351-.104.696-.312 1.064-.334.513-.032.918-.504 1.423-.573.366-.05.645-.21 1.036-.264.367-.05.687-.037 1.026-.068"/>
</svg>
